<svg xmlns="http://www.w3.org/2000/svg" width="55" height="50" viewBox="0 0 55 50">
  <g id="Grupo_85" data-name="Grupo 85" transform="translate(-3432 -3426)">
    <g id="Retângulo_74" data-name="Retângulo 74" transform="translate(3432 3426)" fill="none" stroke="#000" stroke-width="5">
      <rect width="55" height="50" stroke="none"/>
      <rect x="2.5" y="2.5" width="50" height="45" fill="none"/>
    </g>
    <path id="Icon_awesome-bullhorn" data-name="Icon awesome-bullhorn" d="M40,16.667a4.424,4.424,0,0,0-2.222-3.828V2.223A2.245,2.245,0,0,0,35.556,0a2.217,2.217,0,0,0-1.388.488l-5.9,4.724A16.855,16.855,0,0,1,17.778,8.889H4.444A4.444,4.444,0,0,0,0,13.333V20a4.444,4.444,0,0,0,4.444,4.444h2.34a16.876,16.876,0,0,0-.151,2.222,17.592,17.592,0,0,0,1.775,7.7,2.179,2.179,0,0,0,1.972,1.185h5.158a2.208,2.208,0,0,0,1.8-3.511,8.844,8.844,0,0,1-1.816-5.378,8.4,8.4,0,0,1,.306-2.222h1.95a16.852,16.852,0,0,1,10.485,3.677l5.9,4.724a2.221,2.221,0,0,0,3.61-1.735V20.5A4.426,4.426,0,0,0,40,16.667Zm-6.667,9.821-2.3-1.836A21.306,21.306,0,0,0,17.778,20V13.333a21.306,21.306,0,0,0,13.26-4.651l2.3-1.836Z" transform="translate(3440 3433.222)"/>
  </g>
</svg>
