<svg xmlns="http://www.w3.org/2000/svg" width="106.022" height="100" viewBox="0 0 106.022 100">
  <g id="Grupo_102" data-name="Grupo 102" transform="translate(-2726 -7960)">
    <rect id="Ret창ngulo_78" data-name="Ret창ngulo 78" width="106.022" height="100" transform="translate(2726 7960)" fill="red"/>
    <g id="Ret창ngulo_74" data-name="Ret창ngulo 74" transform="translate(2736.619 7970)" fill="none" stroke="#000" stroke-width="10">
      <rect width="84.784" height="80" stroke="none"/>
      <rect x="5" y="5" width="74.784" height="70" fill="none"/>
    </g>
    <path id="Icon_awesome-bullhorn" data-name="Icon awesome-bullhorn" d="M53.584,22.327A5.927,5.927,0,0,0,50.607,17.2V2.978A3.007,3.007,0,0,0,47.631,0a2.97,2.97,0,0,0-1.859.653l-7.91,6.329a22.579,22.579,0,0,1-14.046,4.926H5.954A5.953,5.953,0,0,0,0,17.861v8.931a5.953,5.953,0,0,0,5.954,5.954H9.089a22.607,22.607,0,0,0-.2,2.977,23.566,23.566,0,0,0,2.378,10.321,2.919,2.919,0,0,0,2.642,1.587h6.91a2.958,2.958,0,0,0,2.409-4.7,11.847,11.847,0,0,1-2.433-7.2,11.258,11.258,0,0,1,.41-2.977h2.612a22.575,22.575,0,0,1,14.045,4.926L45.771,44a2.976,2.976,0,0,0,4.836-2.324V27.455A5.928,5.928,0,0,0,53.584,22.327ZM44.654,35.483l-3.075-2.46a28.541,28.541,0,0,0-17.764-6.231V17.861A28.541,28.541,0,0,0,41.579,11.63l3.075-2.46Z" transform="translate(2752.219 7986.185)"/>
  </g>
</svg>
