<svg xmlns="http://www.w3.org/2000/svg" width="80" height="80" viewBox="0 0 80 80">
  <path id="Icon_awesome-angry" data-name="Icon awesome-angry" d="M40,.563a40,40,0,1,0,40,40A39.993,39.993,0,0,0,40,.563ZM21.935,37.982a5.109,5.109,0,0,1,1.694-3.774l-5-1.5a2.577,2.577,0,1,1,1.484-4.935l12.9,3.871a2.579,2.579,0,0,1-.742,5.048c-.081,0-.177-.032-.274-.032a5.215,5.215,0,0,1,.274,1.323,5.169,5.169,0,0,1-10.339,0Zm27.1,24.871c-4.484-5.387-13.581-5.387-18.081,0-2.177,2.629-6.161-.677-3.968-3.306a16.908,16.908,0,0,1,26,0C55.21,62.208,51.194,65.45,49.032,62.853ZM61.387,32.708l-5,1.5a5.146,5.146,0,1,1-8.629,3.774,4.491,4.491,0,0,1,.274-1.323,1.589,1.589,0,0,1-.274.032,2.579,2.579,0,0,1-.742-5.048l12.9-3.871a2.575,2.575,0,1,1,1.468,4.935Z" transform="translate(0 -0.563)" fill="rgba(255,84,38,0.2)"/>
</svg>
