<svg xmlns="http://www.w3.org/2000/svg" width="30" height="30" viewBox="0 0 24.246 24.247">
  <g id="Grupo_5" data-name="Grupo 5" transform="translate(-220.566 -494.002)">
    <path id="Caminho_9" data-name="Caminho 9" d="M244.785,503.122a15.95,15.95,0,0,0-.366-3.809,6.634,6.634,0,0,0-2.23-3.6,7.171,7.171,0,0,0-4.134-1.565c-1.708-.1-3.463-.152-5.365-.148s-3.661.044-5.369.148a7.171,7.171,0,0,0-4.134,1.565,6.635,6.635,0,0,0-2.23,3.6,15.955,15.955,0,0,0-.366,3.809c-.012.885-.025,1.934-.027,3.005s.015,2.116.027,3a15.953,15.953,0,0,0,.366,3.809,6.635,6.635,0,0,0,2.23,3.6,7.171,7.171,0,0,0,4.133,1.565c1.708.1,3.464.152,5.365.148h.241c1.812,0,3.492-.048,5.128-.148a7.171,7.171,0,0,0,4.134-1.565,6.634,6.634,0,0,0,2.23-3.6,15.941,15.941,0,0,0,.366-3.809c.012-.885.025-1.934.027-3v0C244.81,505.056,244.8,504.007,244.785,503.122Zm-1.894,5.98a14.507,14.507,0,0,1-.307,3.366,4.783,4.783,0,0,1-1.591,2.6,5.218,5.218,0,0,1-3.051,1.142c-1.668.1-3.384.149-5.254.144s-3.582-.043-5.25-.144a5.219,5.219,0,0,1-3.051-1.142,4.782,4.782,0,0,1-1.591-2.6,14.511,14.511,0,0,1-.307-3.366c-.012-.88-.025-1.922-.027-2.975s.015-2.1.027-2.979a14.513,14.513,0,0,1,.307-3.366,4.783,4.783,0,0,1,1.591-2.6,5.219,5.219,0,0,1,3.051-1.142c1.668-.1,3.385-.149,5.254-.144s3.582.043,5.25.144a5.219,5.219,0,0,1,3.051,1.142,4.783,4.783,0,0,1,1.591,2.6,14.511,14.511,0,0,1,.307,3.366c.012.879.025,1.921.027,2.977S242.9,508.223,242.891,509.1Z" transform="translate(0 0)" fill="#fff"/>
    <path id="Caminho_10" data-name="Caminho 10" d="M614.554,585" transform="translate(-375.329 -86.689)" fill="#fff"/>
    <g id="Grupo_4" data-name="Grupo 4" transform="translate(229.594 499.935)">
      <path id="Caminho_11" data-name="Caminho 11" d="M416.253,621.34h.819a.312.312,0,0,0,.312-.312v-1.376a.312.312,0,0,0-.285-.31c-.313-.027-.81-.057-1.362-.057a2.614,2.614,0,0,0-2.746,2.909v1.734H411.5a.312.312,0,0,0-.312.312v1.578a.312.312,0,0,0,.312.312h1.487v5.226a.312.312,0,0,0,.312.312h1.582a.312.312,0,0,0,.312-.312v-5.225h1.45a.312.312,0,0,0,.309-.273l.2-1.578a.312.312,0,0,0-.309-.35h-1.647v-1.516c0-.636.172-1.071,1.058-1.071Zm0,0" transform="translate(-411.192 -619.284)" fill="#fff"/>
    </g>
  </g>
</svg>
