<?xml version="1.0" encoding="UTF-8" standalone="no"?>
<svg
   xmlns:dc="http://purl.org/dc/elements/1.1/"
   xmlns:cc="http://creativecommons.org/ns#"
   xmlns:rdf="http://www.w3.org/1999/02/22-rdf-syntax-ns#"
   xmlns:svg="http://www.w3.org/2000/svg"
   xmlns="http://www.w3.org/2000/svg"
   xmlns:xlink="http://www.w3.org/1999/xlink"
   xmlns:sodipodi="http://sodipodi.sourceforge.net/DTD/sodipodi-0.dtd"
   xmlns:inkscape="http://www.inkscape.org/namespaces/inkscape"
   width="1156.697"
   height="1000.0033"
   viewBox="0 0 306.04276 264.5842"
   version="1.1"
   id="svg8"
   inkscape:version="1.0.2-2 (e86c870879, 2021-01-15)"
   sodipodi:docname="desenhando.svg">
  <defs
     id="defs2">
    <clipPath
       id="A">
      <path
         d="m 5443.85,694.969 c -47.73,0 -93.31,9.633 -127.36,29.293 L 4184.94,1379.08 c -12.4,7.16 -22.28,15.27 -30.11,23.94 l -0.21,-0.01 -0.9,1.19 c -3.07,3.51 -5.79,7.09 -8.13,10.77 -76.11,106.57 -27.95,213.01 -2.07,255.97 -20.51,-39.59 -7.36,-81.41 41.42,-109.57 L 5316.49,906.551 c 34.06,-19.66 79.63,-29.301 127.37,-29.301 57.62,0 118.4,14.051 165.87,41.449 L 7731.95,2143.98 v -182.21 l 42.06,24.19 L 5609.73,736.422 c -47.2,-27.25 -107.52,-41.293 -164.85,-41.453 h -1.03 M 7780.79,1989.88 v 182.29 l 159.97,92.36 c 18.89,10.9 34.11,23.02 45.59,35.76 24.9,27.52 32.27,57.96 21.37,85.24 13.62,-24.69 31.88,-66.71 33.46,-116.68 1.38,-43.62 -9.96,-93.29 -48.23,-142.72 -0.79,-1.04 -1.52,-2.09 -2.35,-3.11 l -0.68,-0.89 h -0.12 c -11.82,-14.24 -28.13,-27.82 -49.04,-39.89 l -159.97,-92.36"
         id="path835" />
    </clipPath>
    <linearGradient
       x1="4109.1299"
       y1="1815.3101"
       x2="8045.8999"
       y2="1815.3101"
       spreadMethod="pad"
       id="B"
       xlink:href="#a">
      <stop
         offset="0"
         stop-color="#b3b3b3"
         id="stop838" />
      <stop
         offset=".009"
         stop-color="#b3b3b3"
         id="stop840" />
      <stop
         offset=".035"
         stop-color="gray"
         id="stop842" />
      <stop
         offset=".329"
         stop-color="gray"
         id="stop844" />
      <stop
         offset=".357"
         stop-color="#b3b3b3"
         id="stop846" />
      <stop
         offset=".389"
         stop-color="gray"
         id="stop848" />
      <stop
         offset=".727"
         stop-color="#333"
         id="stop850" />
      <stop
         offset="1"
         stop-color="gray"
         id="stop852" />
    </linearGradient>
    <clipPath
       id="C">
      <path
         d="m 7986.35,2300.29 c 24.91,27.62 32.24,58.15 21.23,85.47 0.05,-0.07 0.09,-0.15 0.14,-0.23 10.9,-27.28 3.53,-57.72 -21.37,-85.24"
         id="path855" />
    </clipPath>
    <linearGradient
       x1="4109.1299"
       y1="1815.3101"
       x2="8045.8999"
       y2="1815.3101"
       spreadMethod="pad"
       id="D"
       xlink:href="#a">
      <stop
         offset="0"
         stop-color="#c1c1c1"
         id="stop858" />
      <stop
         offset=".009"
         stop-color="#c1c1c1"
         id="stop860" />
      <stop
         offset=".035"
         stop-color="#979797"
         id="stop862" />
      <stop
         offset=".329"
         stop-color="#979797"
         id="stop864" />
      <stop
         offset=".357"
         stop-color="#c1c1c1"
         id="stop866" />
      <stop
         offset=".389"
         stop-color="#979797"
         id="stop868" />
      <stop
         offset=".727"
         stop-color="#585858"
         id="stop870" />
      <stop
         offset="1"
         stop-color="#979797"
         id="stop872" />
    </linearGradient>
    <clipPath
       id="E">
      <path
         d="m 6568.81,4153.01 -358.22,606.68 152.18,87.28 0.06,-0.1 c 45.17,25.42 107.35,21.42 176.06,-18.26 137.99,-79.66 249.86,-272.61 249.85,-430.95 0,-79.49 -28.24,-135.07 -73.78,-160.7 l 0.05,-0.1 z"
         id="path875" />
    </clipPath>
    <linearGradient
       x1="6374.6099"
       y1="4854.3901"
       x2="6727.1152"
       y2="4243.8511"
       spreadMethod="pad"
       id="F"
       xlink:href="#a">
      <stop
         offset="0"
         stop-color="#e9dfd5"
         id="stop878" />
      <stop
         offset=".342"
         stop-color="#e9dfd5"
         id="stop880" />
      <stop
         offset="1"
         stop-color="#cdb0a2"
         id="stop882" />
    </linearGradient>
    <clipPath
       id="G">
      <path
         d="m 6302.29,3998.82 -352.24,610.11 262.37,151.48 0.05,-0.1 c 45.18,25.43 107.35,21.42 176.07,-18.25 137.98,-79.67 249.85,-272.62 249.85,-430.96 0,-79.49 -28.24,-135.06 -73.78,-160.69 l 0.05,-0.1 z"
         id="path885" />
    </clipPath>
    <clipPath
       id="H">
      <path
         d="m 6363.27,4152.27 c 0,158.34 -111.86,351.28 -249.84,430.95 -71.48,41.27 -135.77,43.77 -181.31,14.85 l -0.13,0.19 -700.55,-186.75 -764.48,-24.49 928.93,-1528.4 287.65,495.07 618.75,645.13 -0.57,0.94 c 38.23,28.28 61.55,80.47 61.55,152.51 z"
         id="path888" />
    </clipPath>
    <linearGradient
       x1="4466.9702"
       y1="3737.99"
       x2="6363.2798"
       y2="3737.99"
       spreadMethod="pad"
       id="I"
       xlink:href="#a">
      <stop
         offset="0"
         stop-color="#e9dfd5"
         id="stop891" />
      <stop
         offset=".342"
         stop-color="#e9dfd5"
         id="stop893" />
      <stop
         offset="1"
         stop-color="#cdb0a2"
         id="stop895" />
    </linearGradient>
    <clipPath
       id="J">
      <path
         d="m 5377.16,3387.31 -429.63,-243.9 -382.79,662.86 444.46,252.26 c 177.14,-180.62 314.39,-429.63 367.96,-671.22 z"
         id="path898" />
    </clipPath>
    <clipPath
       id="K">
      <path
         d="m 4912.09,3332.44 c 0,128.43 -90.73,284.93 -202.66,349.54 -111.92,64.63 -202.64,12.9 -202.64,-115.53 0,-128.43 90.72,-284.94 202.64,-349.55 111.93,-64.61 202.66,-12.89 202.66,115.54 z"
         id="path901" />
    </clipPath>
    <clipPath
       id="L">
      <path
         d="m 5971.83,3242.61 -44.13,74.73 18.75,10.75 v -0.01 c 5.56,3.13 13.22,2.63 21.68,-2.25 17.01,-9.81 30.79,-33.58 30.79,-53.09 0,-9.78 -3.49,-16.63 -9.1,-19.79 l 0.01,-0.01 z"
         id="path904" />
    </clipPath>
    <linearGradient
       x1="5947.8999"
       y1="3329"
       x2="5991.3208"
       y2="3253.7959"
       spreadMethod="pad"
       id="M"
       xlink:href="#a">
      <stop
         offset="0"
         stop-color="#e9dfd5"
         id="stop907" />
      <stop
         offset=".342"
         stop-color="#e9dfd5"
         id="stop909" />
      <stop
         offset="1"
         stop-color="#cdb0a2"
         id="stop911" />
    </linearGradient>
    <clipPath
       id="N">
      <path
         d="m 5938.99,3223.62 -43.38,75.15 32.31,18.66 0.01,-0.02 c 5.57,3.14 13.22,2.65 21.69,-2.24 16.99,-9.82 30.77,-33.58 30.77,-53.09 0,-9.79 -3.48,-16.63 -9.08,-19.79 v -0.01 z"
         id="path914" />
    </clipPath>
    <clipPath
       id="O">
      <path
         d="m 5946.5,3242.52 c 0,19.5 -13.78,43.27 -30.77,53.09 -8.81,5.07 -16.73,5.39 -22.33,1.82 l -0.02,0.02 -86.29,-23 -94.17,-3.01 114.42,-188.27 35.43,60.98 76.22,79.47 -0.06,0.11 c 4.7,3.49 7.57,9.91 7.57,18.79 z"
         id="path917" />
    </clipPath>
    <linearGradient
       x1="5712.9199"
       y1="3191.49"
       x2="5946.501"
       y2="3191.49"
       spreadMethod="pad"
       id="P"
       xlink:href="#a">
      <stop
         offset="0"
         stop-color="#e9dfd5"
         id="stop920" />
      <stop
         offset=".342"
         stop-color="#e9dfd5"
         id="stop922" />
      <stop
         offset="1"
         stop-color="#cdb0a2"
         id="stop924" />
    </linearGradient>
    <clipPath
       id="Q">
      <path
         d="m 5825.04,3148.29 -52.92,-30.04 -47.15,81.65 54.75,31.08 c 21.81,-22.26 38.72,-52.92 45.32,-82.69 z"
         id="path927" />
    </clipPath>
    <clipPath
       id="R">
      <path
         d="m 5767.75,3141.53 c 0,15.82 -11.18,35.1 -24.96,43.06 -13.79,7.96 -24.96,1.59 -24.96,-14.23 0,-15.82 11.17,-35.1 24.96,-43.06 13.78,-7.95 24.96,-1.59 24.96,14.23 z"
         id="path930" />
    </clipPath>
    <clipPath
       id="S">
      <path
         d="m 5051.61,2716.95 -42.63,72.21 18.11,10.38 0.01,-0.01 c 5.37,3.03 12.77,2.55 20.96,-2.17 16.41,-9.48 29.73,-32.45 29.73,-51.29 0,-9.46 -3.37,-16.07 -8.79,-19.13 l 0.01,-0.01 z"
         id="path933" />
    </clipPath>
    <linearGradient
       x1="5028.5"
       y1="2800.4299"
       x2="5070.4531"
       y2="2727.7671"
       spreadMethod="pad"
       id="T"
       xlink:href="#a">
      <stop
         offset="0"
         stop-color="#e9dfd5"
         id="stop936" />
      <stop
         offset=".342"
         stop-color="#e9dfd5"
         id="stop938" />
      <stop
         offset="1"
         stop-color="#cdb0a2"
         id="stop940" />
    </linearGradient>
    <clipPath
       id="U">
      <path
         d="m 5019.89,2698.6 -41.92,72.61 31.23,18.03 0.01,-0.01 c 5.37,3.03 12.77,2.55 20.95,-2.17 16.42,-9.48 29.73,-32.45 29.73,-51.29 0,-9.46 -3.36,-16.07 -8.78,-19.13 l 0.01,-0.01 z"
         id="path943" />
    </clipPath>
    <clipPath
       id="V">
      <path
         d="m 5027.15,2716.87 c 0,18.84 -13.31,41.8 -29.73,51.28 -8.51,4.92 -16.16,5.21 -21.58,1.77 l -0.02,0.02 -83.37,-22.23 -90.99,-2.91 110.56,-181.9 34.24,58.93 73.63,76.77 -0.07,0.11 c 4.56,3.37 7.33,9.58 7.33,18.16 z"
         id="path946" />
    </clipPath>
    <linearGradient
       x1="4801.4702"
       y1="2667.5601"
       x2="5027.1572"
       y2="2667.5601"
       spreadMethod="pad"
       id="W"
       xlink:href="#a">
      <stop
         offset="0"
         stop-color="#e9dfd5"
         id="stop949" />
      <stop
         offset=".342"
         stop-color="#e9dfd5"
         id="stop951" />
      <stop
         offset="1"
         stop-color="#cdb0a2"
         id="stop953" />
    </linearGradient>
    <clipPath
       id="X">
      <path
         d="m 4909.79,2625.82 -51.13,-29.02 -45.55,78.88 52.89,30.02 c 21.08,-21.49 37.42,-51.12 43.79,-79.88 z"
         id="path956" />
    </clipPath>
    <clipPath
       id="Y">
      <path
         d="m 4854.44,2619.3 c 0,15.28 -10.8,33.9 -24.12,41.6 -13.32,7.68 -24.12,1.53 -24.12,-13.75 0,-15.29 10.8,-33.92 24.12,-41.6 13.32,-7.7 24.12,-1.54 24.12,13.75 z"
         id="path959" />
    </clipPath>
    <path
       id="Z"
       d="M 315.892,106.362 249.036,67.277 v -3.248 l 66.856,39.085 v 3.248" />
    <linearGradient
       id="a"
       gradientUnits="userSpaceOnUse" />
  </defs>
  <sodipodi:namedview
     id="base"
     pagecolor="#ffffff"
     bordercolor="#666666"
     borderopacity="1.0"
     inkscape:pageopacity="0.0"
     inkscape:pageshadow="2"
     inkscape:zoom="0.35"
     inkscape:cx="429.71392"
     inkscape:cy="426.4994"
     inkscape:document-units="mm"
     inkscape:current-layer="g1802"
     inkscape:document-rotation="0"
     showgrid="false"
     fit-margin-top="0"
     fit-margin-left="0"
     fit-margin-right="0"
     fit-margin-bottom="0"
     units="px"
     inkscape:window-width="1366"
     inkscape:window-height="728"
     inkscape:window-x="1366"
     inkscape:window-y="0"
     inkscape:window-maximized="0" />
  <metadata
     id="metadata5">
    <rdf:RDF>
      <cc:Work
         rdf:about="">
        <dc:format>image/svg+xml</dc:format>
        <dc:type
           rdf:resource="http://purl.org/dc/dcmitype/StillImage" />
        <dc:title></dc:title>
      </cc:Work>
    </rdf:RDF>
  </metadata>
  <g
     inkscape:label="Layer 1"
     inkscape:groupmode="layer"
     id="layer1"
     transform="translate(2.6589014,38.554)">
    <g
       transform="translate(-49.906146,-38.553809)"
       id="g1340">
      <g
         id="g1802"
         transform="translate(30.067822)">
        <path
           d="m 299.063,165.777 -71.828,-41.566 c -4.771,-2.754 -13.105,-2.408 -18.613,0.772 L 60.655,210.412 c -5.509,3.181 -6.107,7.992 -1.336,10.747 l 69.048,39.957 3.982,3.468 h 7.773 v -0.018 c 3.386,-0.133 6.869,-1.014 9.638,-2.612 l 147.967,-85.429 c 5.509,-3.181 6.107,-7.992 1.336,-10.747"
           fill="#e6e8f2"
           id="path966" />
        <g
           clip-path="url(#A)"
           transform="matrix(0.063477,0,0,-0.063477,-213.29589,308.68021)"
           id="g970">
          <path
             d="m 5443.85,694.969 c -47.73,0 -93.31,9.633 -127.36,29.293 L 4184.94,1379.08 c -12.4,7.16 -22.28,15.27 -30.11,23.94 l -0.21,-0.01 -0.9,1.19 c -3.07,3.51 -5.79,7.09 -8.13,10.77 -76.11,106.57 -27.95,213.01 -2.07,255.97 -20.51,-39.59 -7.36,-81.41 41.42,-109.57 L 5316.49,906.551 c 34.06,-19.66 79.63,-29.301 127.37,-29.301 57.62,0 118.4,14.051 165.87,41.449 L 7731.95,2143.98 v -182.21 l 42.06,24.19 L 5609.73,736.422 c -47.2,-27.25 -107.52,-41.293 -164.85,-41.453 h -1.03 M 7780.79,1989.88 v 182.29 l 159.97,92.36 c 18.89,10.9 34.11,23.02 45.59,35.76 24.9,27.52 32.27,57.96 21.37,85.24 13.62,-24.69 31.88,-66.71 33.46,-116.68 1.38,-43.62 -9.96,-93.29 -48.23,-142.72 -0.79,-1.04 -1.52,-2.09 -2.35,-3.11 l -0.68,-0.89 h -0.12 c -11.82,-14.24 -28.13,-27.82 -49.04,-39.89 l -159.97,-92.36"
             fill="url(#B)"
             id="path968"
             style="fill:url(#B)" />
        </g>
        <path
           d="m 155.219,239.503 v 15.262 l -3.1,1.783 v -17.045 h 3.1"
           fill="#aeaeae"
           id="path972" />
        <path
           d="M 124.179,251.135 52.352,209.569 c -4.77,-2.754 -4.172,-7.566 1.337,-10.747 l 147.967,-85.428 c 5.509,-3.181 13.842,-3.526 18.613,-0.772 l 71.828,41.565 c 4.771,2.755 4.172,7.566 -1.337,10.747 l -147.967,85.429 c -5.509,3.181 -13.842,3.526 -18.614,0.771"
           class="L"
           id="path974"
           style="fill:#d5d8de;fill-opacity:1" />
        <path
           d="m 127.526,245.849 -66.02,-38.213 c -4.415,-2.549 -3.862,-7.002 1.237,-9.946 l 136.951,-79.068 c 5.098,-2.944 12.812,-3.264 17.228,-0.714 l 66.02,38.212 c 4.416,2.549 3.862,7.002 -1.237,9.946 l -136.952,79.069 c -5.098,2.943 -12.812,3.263 -17.228,0.713"
           id="path976" />
        <path
           d="m 135.009,246.375 c -2.696,0 -5.142,-0.555 -6.884,-1.562 l -66.02,-38.212 c -1.088,-0.629 -2.384,-1.706 -2.384,-3.283 0,-1.589 1.321,-3.263 3.621,-4.591 l 136.95,-79.068 c 2.504,-1.447 5.838,-2.276 9.146,-2.276 2.697,0 5.141,0.555 6.885,1.562 l 66.019,38.212 c 1.089,0.628 2.384,1.706 2.384,3.284 0,1.589 -1.318,3.261 -3.619,4.589 l -136.952,79.069 c -2.504,1.446 -5.838,2.276 -9.146,2.276"
           class="J"
           id="path978" />
        <path
           d="m 95.899,242.622 -13.993,-8.056 v -4.364 l 13.993,8.056 v 4.364"
           id="path980" />
        <path
           d="m 84.115,233.294 v -1.816 l -2.21,-1.277 v 4.364 l 13.993,8.056 v -2.547 l -11.784,-6.781"
           class="L"
           id="path982" />
        <path
           d="m 83.823,233.467 0.293,-0.173 v -1.816 l -0.293,-0.169 v 2.159"
           fill="#656565"
           id="path984" />
        <path
           d="m 83.823,233.467 v -2.159 l -1.917,-1.107 v 4.364 l 13.993,8.056 v -2.206 l -12.076,-6.948"
           fill="#ffffff"
           id="path986" />
        <path
           d="m 83.089,233.882 v -2.997 l -1.184,-0.684 v 4.364 l 13.993,8.056 v -1.368 l -12.81,-7.372"
           class="L"
           id="path988" />
        <path
           d="m 81.906,234.565 1.184,-0.684 v -2.997 L 81.906,230.2 v 4.364"
           fill="#656565"
           id="path990" />
        <path
           d="m 176.86,230.693 h -7.09 l 68.335,-39.454 h 7.08 l -68.325,39.454 m -75.521,0 H 88.857 L 52.348,209.565 C 47.584,206.812 48.183,202 53.689,198.828 l 13.144,-7.589 h 7.084 l -11.174,6.452 c -5.098,2.944 -5.652,7.397 -1.237,9.946 l 39.833,23.056"
           fill="#e9ebf3"
           id="path992"
           style="fill:#d5d8de;fill-opacity:1" />
        <path
           d="m 169.77,230.693 h -2.395 l 68.336,-39.454 h 2.394 l -68.335,39.454 m -66.041,0 h -2.39 L 61.506,207.637 c -4.415,-2.549 -3.862,-7.002 1.237,-9.946 l 11.174,-6.452 h 2.396 l -12.97,7.488 c -2.3,1.328 -3.621,3.002 -3.621,4.591 0,1.577 1.296,2.654 2.384,3.283 l 41.624,24.092"
           class="M"
           id="path994" />
        <path
           d="M 167.375,230.693 H 103.729 L 62.105,206.601 c -1.088,-0.629 -2.384,-1.706 -2.384,-3.283 0,-1.589 1.321,-3.263 3.621,-4.591 l 12.97,-7.488 h 81.929 c 0.852,1.596 2.375,3.1 4.565,4.365 3.585,2.07 8.28,3.106 12.964,3.106 4.646,0 9.282,-1.019 12.815,-3.059 2.206,-1.274 3.723,-2.795 4.551,-4.412 h 42.574 l -68.336,39.454 m -49.553,-22.525 c -4.646,0 -9.282,1.019 -12.815,3.059 -7.096,4.097 -7.061,10.761 0.081,14.884 3.586,2.07 8.28,3.106 12.964,3.106 4.646,0 9.282,-1.019 12.816,-3.06 7.096,-4.097 7.061,-10.761 -0.081,-14.883 -3.586,-2.07 -8.28,-3.106 -12.965,-3.106"
           class="J"
           id="path996" />
        <path
           d="m 118.051,229.217 c -4.684,0 -9.378,-1.036 -12.964,-3.106 -7.141,-4.123 -7.177,-10.787 -0.081,-14.884 3.534,-2.04 8.169,-3.059 12.815,-3.059 4.685,0 9.379,1.036 12.965,3.106 7.141,4.123 7.177,10.787 0.081,14.883 -3.534,2.04 -8.17,3.06 -12.816,3.06"
           class="H"
           id="path998" />
        <path
           d="m 280.605,162.463 v 19.907 l -3.1,1.783 v -21.69 h 3.1"
           fill="#aeaeae"
           id="path1000" />
        <path
           d="m 256.482,193.719 -1.163,-0.663 0.002,-0.001 c -0.288,-0.133 -0.466,-0.437 -0.466,-0.886 v -1.585 c 0,-0.921 0.746,-2.099 1.668,-2.63 l 11.484,-6.534 c 0.504,-0.291 0.955,-0.327 1.261,-0.15 v -0.001 l 0.008,0.005 0.024,0.013 1.259,0.718 -0.797,0.576 -0.086,-0.139 v 2.49 c 0,0.921 -0.746,0.877 -1.668,1.41 l -11.484,6.533 -0.212,0.107 0.115,0.033 0.056,0.705"
           fill="#dec8c8"
           id="path1002" />
        <path
           d="m 256.427,193.014 -0.114,-0.033 0.21,-0.107 2.644,-1.527 -4.254,-1.235 a 2.06,2.06 0 0 0 -0.059,0.47 l 0.002,1.584 c 0,0.235 0.047,0.432 0.135,0.583 0.079,0.138 0.194,0.241 0.33,0.305 l 1.162,0.665 -0.055,-0.706"
           fill="#ffffff"
           id="path1004" />
        <path
           d="m 258.529,192.295 2.121,-1.803 -0.119,0.762 -4.719,-2.728 c -0.514,0.535 -0.881,1.238 -0.948,1.861 l 3.665,1.907"
           fill="#e8e0dd"
           id="path1006" />
        <path
           d="m 270.938,182.846 v 1.585 c 0,0.921 -0.746,2.099 -1.668,2.631 l -11.484,6.534 c -0.922,0.532 -1.669,0.216 -1.669,-0.705 v -1.584 c 0,-0.921 0.747,-2.1 1.669,-2.632 l 11.484,-6.534 c 0.922,-0.532 1.668,-0.216 1.668,0.705"
           fill="#9c8c8c"
           id="path1008" />
        <path
           d="m 270.087,184.042 v 1.092 c 0,0.76 -0.616,1.732 -1.376,2.17 l -9.879,5.606 c -0.759,0.439 -1.376,0.178 -1.376,-0.581 v -1.092 c 0,-0.76 0.616,-1.731 1.376,-2.17 l 9.879,-5.607 c 0.76,-0.438 1.376,-0.178 1.376,0.581"
           class="H"
           id="path1010" />
        <path
           d="M 258.131,140.09 238.6,128.814 c -0.726,-0.419 -0.635,-1.15 0.202,-1.634 0.837,-0.484 2.106,-0.536 2.83,-0.117 l 19.532,11.275 c 0.726,0.42 0.634,1.151 -0.203,1.635 -0.837,0.484 -2.106,0.536 -2.83,0.117"
           id="path1012" />
        <path
           d="m 267.839,143.778 a 2.91,2.91 0 0 1 -2.627,-0.005 c -0.727,-0.42 -0.731,-1.099 -0.008,-1.516 0.723,-0.417 1.9,-0.415 2.627,0.005 0.727,0.42 0.732,1.099 0.009,1.516"
           fill="#26262e"
           id="path1014" />
        <path
           d="m 267.4,143.524 c -0.482,0.279 -1.266,0.277 -1.751,-0.003 -0.485,-0.28 -0.488,-0.733 -0.006,-1.012 0.482,-0.279 1.266,-0.277 1.752,0.004 0.486,0.281 0.488,0.733 0.005,1.011"
           fill="#6a63ed"
           id="path1016" />
        <path
           d="m 267.02,143.305 a 1.1,1.1 0 0 1 -0.993,-0.002 c -0.275,-0.159 -0.276,-0.415 -0.003,-0.574 a 1.1,1.1 0 0 1 0.993,0.002 c 0.275,0.159 0.276,0.416 0.003,0.574"
           fill="#9b9bf3"
           id="path1018" />
        <path
           d="m 271.553,145.923 c -0.723,0.417 -1.899,0.415 -2.626,-0.005 -0.727,-0.42 -0.732,-1.099 -0.009,-1.517 0.723,-0.418 1.899,-0.415 2.627,0.005 0.728,0.42 0.731,1.099 0.008,1.517"
           fill="#26262e"
           id="path1020" />
        <path
           d="m 271.115,145.669 c -0.482,0.279 -1.266,0.277 -1.752,-0.003 -0.486,-0.28 -0.488,-0.733 -0.006,-1.011 0.482,-0.278 1.266,-0.277 1.752,0.003 0.486,0.28 0.488,0.733 0.006,1.011"
           fill="#6a63ed"
           id="path1022" />
        <path
           d="m 270.734,145.449 a 1.1,1.1 0 0 1 -0.993,-0.001 c -0.275,-0.159 -0.277,-0.416 -0.003,-0.574 a 1.1,1.1 0 0 1 0.993,0.001 c 0.275,0.159 0.277,0.416 0.003,0.574"
           fill="#9b9bf3"
           id="path1024" />
        <path
           d="m 295.01,157.254 c -0.196,-0.481 -0.469,-0.933 -0.826,-1.363 0.362,0.434 0.637,0.891 0.826,1.363"
           class="N"
           id="path1026" />
        <g
           clip-path="url(#C)"
           transform="matrix(0.063477,0,0,-0.063477,-213.29589,308.68021)"
           id="g1030">
          <path
             d="m 7986.35,2300.29 c 24.91,27.62 32.24,58.15 21.23,85.47 0.05,-0.07 0.09,-0.15 0.14,-0.23 10.9,-27.28 3.53,-57.72 -21.37,-85.24"
             fill="url(#D)"
             id="path1028"
             style="fill:url(#D)" />
        </g>
        <path
           d="m 269.592,177.151 h -7.085 l 19.198,-11.084 c 5.098,-2.944 5.653,-7.397 1.237,-9.946 l -31.81,-18.411 h 2.875 l 4.124,2.381 c 0.328,0.19 0.768,0.282 1.228,0.282 0.557,0 1.143,-0.136 1.602,-0.4 0.837,-0.484 0.929,-1.215 0.203,-1.635 l -1.09,-0.629 h 3.545 l 28.478,16.482 c 0.875,0.505 1.57,1.079 2.087,1.699 a 5.06,5.06 0 0 1 0.817,1.348 c 0.699,1.734 0.234,3.672 -1.348,5.425 -0.73,0.807 -1.697,1.574 -2.898,2.264 l -21.163,12.222 m 0.632,-33.062 c -0.474,0 -0.946,0.104 -1.306,0.312 -0.723,0.418 -0.719,1.097 0.009,1.517 0.365,0.211 0.843,0.317 1.32,0.317 0.477,0 0.946,-0.104 1.306,-0.312 0.723,-0.418 0.719,-1.097 -0.008,-1.517 -0.366,-0.211 -0.844,-0.317 -1.32,-0.317 m -3.715,-2.144 c -0.474,0 -0.946,0.104 -1.306,0.312 -0.722,0.418 -0.719,1.097 0.008,1.516 0.366,0.211 0.844,0.317 1.321,0.317 0.477,0 0.946,-0.104 1.306,-0.312 0.723,-0.418 0.719,-1.097 -0.009,-1.516 -0.365,-0.211 -0.843,-0.317 -1.32,-0.317 M 98.319,177.151 h -7.08 L 159.54,137.71 h 7.094 l -68.315,39.441"
           fill="#e9ebf3"
           id="path1032"
           style="fill:#d5d8de;fill-opacity:1" />
        <path
           d="m 262.507,177.151 h -2.394 l 20.994,-12.121 c 2.3,-1.329 3.619,-3.001 3.619,-4.589 0,-1.577 -1.295,-2.656 -2.384,-3.284 L 248.744,137.71 h 2.389 l 31.81,18.411 c 4.416,2.549 3.862,7.002 -1.237,9.946 l -19.198,11.084 m -161.793,0 H 98.32 l 68.315,-39.441 h 2.395 l -68.315,39.441"
           class="M"
           id="path1034" />
        <path
           d="M 260.113,177.151 H 100.714 l 68.315,-39.441 h 79.715 l 33.598,19.447 c 1.089,0.628 2.384,1.706 2.384,3.284 0,1.589 -1.318,3.261 -3.619,4.589 l -20.994,12.121 m -34.402,-26.986 c -4.646,0 -9.282,1.019 -12.816,3.06 -7.097,4.097 -7.06,10.761 0.081,14.883 3.585,2.07 8.279,3.106 12.964,3.106 4.646,0 9.282,-1.019 12.815,-3.06 7.097,-4.097 7.06,-10.761 -0.081,-14.883 -3.585,-2.07 -8.279,-3.106 -12.964,-3.106"
           class="J"
           id="path1036" />
        <path
           d="m 259.359,140.373 c -0.46,0 -0.9,-0.093 -1.228,-0.282 l -4.124,-2.381 h 6.068 l 1.09,0.629 c 0.726,0.42 0.634,1.151 -0.203,1.635 -0.459,0.264 -1.045,0.4 -1.602,0.4"
           class="M"
           id="path1038" />
        <path
           d="m 266.533,144.09 c -0.477,0 -0.955,-0.106 -1.321,-0.317 -0.727,-0.42 -0.731,-1.099 -0.008,-1.516 0.361,-0.208 0.833,-0.312 1.306,-0.312 0.473,0 0.955,0.106 1.32,0.317 0.727,0.42 0.732,1.099 0.009,1.516 -0.361,0.208 -0.833,0.312 -1.306,0.312 m -0.02,-1.788 c -0.315,0 -0.63,0.07 -0.87,0.208 -0.482,0.279 -0.48,0.731 0.006,1.012 0.243,0.14 0.562,0.211 0.88,0.211 0.318,0 0.631,-0.069 0.871,-0.208 0.482,-0.278 0.48,-0.731 -0.005,-1.011 -0.244,-0.142 -0.563,-0.212 -0.882,-0.212"
           fill="#4d4d54"
           id="path1040" />
        <path
           d="m 266.529,143.732 c -0.318,0 -0.637,-0.071 -0.88,-0.211 -0.486,-0.281 -0.488,-0.733 -0.006,-1.012 0.24,-0.138 0.555,-0.208 0.87,-0.208 0.315,0 0.638,0.071 0.882,0.212 0.485,0.28 0.488,0.733 0.005,1.011 -0.24,0.139 -0.555,0.208 -0.871,0.208 m -0.012,-1.121 a 1.01,1.01 0 0 0 -0.494,0.118 c -0.273,0.159 -0.272,0.415 0.003,0.574 0.138,0.079 0.319,0.119 0.5,0.119 0.181,0 0.357,-0.039 0.494,-0.117 0.273,-0.158 0.272,-0.415 -0.003,-0.574 a 1.02,1.02 0 0 0 -0.5,-0.12"
           fill="#857ff0"
           id="path1042" />
        <path
           d="m 266.526,143.422 c -0.18,0 -0.361,-0.04 -0.5,-0.119 -0.275,-0.159 -0.276,-0.415 -0.003,-0.574 a 1.01,1.01 0 0 1 0.494,-0.118 1.02,1.02 0 0 1 0.5,0.12 c 0.275,0.159 0.276,0.416 0.003,0.574 -0.136,0.078 -0.315,0.117 -0.494,0.117"
           fill="#adadf5"
           id="path1044" />
        <path
           d="m 270.247,146.234 c -0.477,0 -0.955,-0.106 -1.32,-0.317 -0.728,-0.42 -0.732,-1.099 -0.009,-1.517 0.36,-0.208 0.833,-0.312 1.306,-0.312 0.473,0 0.955,0.106 1.32,0.317 0.727,0.42 0.731,1.099 0.008,1.517 -0.36,0.208 -0.833,0.312 -1.306,0.312 m -0.02,-1.788 c -0.315,0 -0.63,0.069 -0.871,0.208 -0.482,0.278 -0.48,0.731 0.006,1.011 0.244,0.141 0.562,0.211 0.881,0.211 0.319,0 0.63,-0.069 0.871,-0.208 0.482,-0.278 0.48,-0.731 -0.006,-1.011 -0.244,-0.141 -0.562,-0.211 -0.881,-0.211"
           fill="#4d4d54"
           id="path1046" />
        <path
           d="m 270.244,145.877 c -0.319,0 -0.637,-0.071 -0.881,-0.211 -0.486,-0.28 -0.488,-0.733 -0.006,-1.011 0.241,-0.139 0.555,-0.208 0.871,-0.208 0.316,0 0.637,0.071 0.881,0.211 0.486,0.28 0.488,0.733 0.006,1.011 -0.241,0.139 -0.555,0.208 -0.871,0.208 m -0.011,-1.121 a 1.01,1.01 0 0 0 -0.494,0.118 c -0.274,0.157 -0.272,0.415 0.003,0.574 0.138,0.079 0.319,0.119 0.499,0.119 0.18,0 0.358,-0.039 0.494,-0.118 0.274,-0.157 0.272,-0.415 -0.003,-0.574 -0.138,-0.079 -0.319,-0.119 -0.498,-0.119"
           fill="#857ff0"
           id="path1048" />
        <path
           d="m 270.24,145.567 c -0.18,0 -0.361,-0.04 -0.499,-0.119 -0.275,-0.159 -0.277,-0.416 -0.003,-0.574 a 1.01,1.01 0 0 1 0.494,-0.118 c 0.18,0 0.361,0.04 0.498,0.119 0.275,0.159 0.277,0.416 0.003,0.574 -0.136,0.079 -0.315,0.118 -0.494,0.118"
           fill="#adadf5"
           id="path1050" />
        <path
           d="m 309.007,137.894 -67.71,-39.128 c -1.141,-0.659 -0.998,-1.81 0.32,-2.57 l 3.479,-2.008 c 1.318,-0.761 3.311,-0.844 4.452,-0.185 l 67.71,39.128 c 1.141,0.659 0.998,1.81 -0.319,2.571 l -3.479,2.008 c -1.317,0.76 -3.311,0.843 -4.452,0.184"
           fill="#e6e8f2"
           id="path1052" />
        <g
           class="H"
           id="g1058">
          <path
             d="M 319.17,61.243 250.734,21.234 c -1.002,-0.586 -1.916,-0.623 -2.621,-0.217 l -3.074,1.794 1.718,0.726 c -0.03,0.247 -0.049,0.503 -0.049,0.779 v 38.049 c 0,3.002 1.803,6.489 4.026,7.789 l 68.436,40.01 0.02,0.01 -0.548,2.051 3.084,-1.803 0.017,-0.01 0.034,-0.02 -0.002,-10e-4 c 0.868,-0.489 1.421,-1.649 1.421,-3.31 V 69.032 c 0,-3.002 -1.803,-6.489 -4.026,-7.789"
             id="path1054" />
          <path
             d="m 269.049,75.534 -13.834,-4.587 c 0,0 2.893,16.237 -17.356,11.842 l -2.945,1.669 2.879,1.084 5.288,1.284 1.643,-1.052 c 4.668,1.674 10.876,3.184 15.862,1.882 l -0.446,0.71 3.043,-1.722 0.013,-0.007 0.237,-0.135 h -0.015 c 3.034,-1.76 5.219,-5.117 5.63,-10.968"
             id="path1056" />
        </g>
        <g
           class="J"
           id="g1064">
          <path
             d="m 252.27,72.616 c 0,0 2.893,16.237 -17.355,11.842 0,0 29.555,15.987 31.189,-7.255 L 252.27,72.616"
             id="path1060" />
          <path
             d="M 316.115,111.951 247.68,71.942 c -2.224,-1.3 -4.026,-4.787 -4.026,-7.789 v -38.05 c 0,-3.002 1.802,-4.381 4.026,-3.081 l 68.436,40.009 c 2.224,1.3 4.026,4.787 4.026,7.789 v 38.05 c 0,3.001 -1.802,4.381 -4.026,3.081"
             id="path1062" />
        </g>
        <use
           xlink:href="#Z"
           class="N"
           id="use1066"
           x="0"
           y="0"
           width="100%"
           height="100%" />
        <path
           d="M 193.616,75.738 V 36.756 l -16.298,9.409 v 38.982 c 0,1.817 0.632,3.07 1.619,3.558 l -0.001,0.002 10.201,5.847 2.034,-8.218 -1.111,-2.886 c 2.02,-1.651 3.556,-4.881 3.556,-7.714"
           class="O"
           id="path1068" />
        <path
           d="m 199.609,89.908 -7.652,4.417 c -2.387,1.378 -4.323,-0.084 -4.323,-3.268 V 52.076 l 16.298,-9.409 v 38.981 c 0,3.183 -1.935,6.881 -4.323,8.26"
           class="P"
           id="path1070" />
        <g
           clip-path="url(#E)"
           transform="matrix(0.063477,0,0,-0.063477,-213.29589,308.68021)"
           id="g1074">
          <path
             d="m 6568.81,4153.01 -358.22,606.68 152.18,87.28 0.06,-0.1 c 45.17,25.42 107.35,21.42 176.06,-18.26 137.99,-79.66 249.86,-272.61 249.85,-430.95 0,-79.49 -28.24,-135.07 -73.78,-160.7 l 0.05,-0.1 -146.2,-83.85"
             fill="url(#F)"
             id="path1072"
             style="fill:url(#F)" />
        </g>
        <path
           d="m 207.543,35.319 c 0,-10.05 -7.101,-22.298 -15.86,-27.355 -8.759,-5.057 -15.86,-1.009 -15.86,9.042 0,10.051 7.101,22.299 15.86,27.355 8.759,5.056 15.86,1.009 15.86,-9.042"
           class="B"
           id="path1076" />
        <g
           clip-path="url(#G)"
           transform="matrix(0.063477,0,0,-0.063477,-213.29589,308.68021)"
           class="E"
           id="g1080">
          <path
             d="m 6302.29,3998.82 -352.24,610.11 262.37,151.48 0.05,-0.1 c 45.18,25.43 107.35,21.42 176.07,-18.25 137.98,-79.67 249.85,-272.62 249.85,-430.96 0,-79.49 -28.24,-135.06 -73.78,-160.69 l 0.05,-0.1 -262.37,-151.49"
             id="path1078"
             style="fill:#fc724d;fill-opacity:1" />
        </g>
        <path
           d="m 190.625,45.107 c 0,-10.051 -7.101,-22.298 -15.859,-27.355 -8.758,-5.057 -15.86,-1.009 -15.86,9.042 0,10.051 7.101,22.299 15.86,27.355 8.759,5.056 15.859,1.009 15.859,-9.042"
           class="B"
           id="path1082" />
        <g
           clip-path="url(#H)"
           transform="matrix(0.063477,0,0,-0.063477,-213.29589,308.68021)"
           id="g1086">
          <path
             d="m 6363.27,4152.27 c 0,158.34 -111.86,351.28 -249.84,430.95 -71.48,41.27 -135.77,43.77 -181.31,14.85 l -0.13,0.19 -700.55,-186.75 -764.48,-24.49 928.93,-1528.4 287.65,495.07 618.75,645.13 -0.57,0.94 c 38.23,28.28 61.55,80.47 61.55,152.51"
             fill="url(#I)"
             id="path1084"
             style="fill:url(#I)" />
        </g>
        <path
           d="m 133.062,109.182 c 0,-26.89 -18.996,-59.656 -42.429,-73.185 C 67.2,22.468 48.204,33.299 48.204,60.188 c 0,26.889 18.996,59.656 42.429,73.184 23.433,13.528 42.429,2.698 42.429,-24.19"
           class="B"
           id="path1088"
           style="fill:#ff5c30;fill-opacity:1" />
        <path
           d="M 129.619,107.194 C 129.619,82.487 112.164,52.38 90.633,39.949 69.102,27.518 51.647,37.47 51.647,62.177 c 0,24.707 17.454,54.814 38.986,67.244 21.532,12.43 38.986,2.479 38.986,-22.228"
           class="Q"
           id="path1090" />
        <g
           clip-path="url(#J)"
           fill="#ff5c30"
           transform="matrix(0.063477,0,0,-0.063477,-213.29589,308.68021)"
           class="E"
           id="g1094">
          <path
             d="m 5377.16,3387.31 -429.63,-243.9 -382.79,662.86 444.46,252.26 c 177.14,-180.62 314.39,-429.63 367.96,-671.22"
             id="path1092"
             style="fill:#fc724d;fill-opacity:1" />
        </g>
        <path
           d="m 104.963,98.566 c 0,-10.921 -7.716,-24.229 -17.233,-29.724 -9.517,-5.495 -17.234,-1.096 -17.234,9.826 0,10.922 7.716,24.229 17.234,29.724 9.518,5.495 17.233,1.096 17.233,-9.826"
           class="B"
           id="path1096"
           style="fill:#d7a68c;fill-opacity:1" />
        <g
           clip-path="url(#K)"
           fill="#ff5c30"
           transform="matrix(0.063477,0,0,-0.063477,-213.29589,308.68021)"
           id="g1100">
          <path
             d="m 4912.09,3332.44 c 0,128.43 -90.73,284.93 -202.66,349.54 -111.92,64.63 -202.64,12.9 -202.64,-115.53 0,-128.43 90.72,-284.94 202.64,-349.55 111.93,-64.61 202.66,-12.89 202.66,115.54"
             id="path1098"
             style="fill:#ff5c30;fill-opacity:1" />
        </g>
        <path
           d="m 225.94,171.214 c -4.685,0 -9.379,-1.036 -12.964,-3.106 -7.141,-4.123 -7.178,-10.787 -0.081,-14.883 3.534,-2.041 8.17,-3.06 12.816,-3.06 4.685,0 9.379,1.036 12.964,3.106 7.141,4.123 7.177,10.787 0.081,14.883 -3.533,2.04 -8.169,3.06 -12.815,3.06"
           class="H"
           id="path1102" />
        <path
           d="m 214.699,86.492 c -0.324,-0.28 -0.511,-0.711 -0.708,-1.069 -0.208,-0.375 -0.355,-0.783 -0.413,-1.209 -0.072,-0.542 -0.007,-1.126 -0.272,-1.604 -0.269,-0.485 -0.866,-0.754 -1.412,-0.662 -0.555,0.093 -1.047,0.524 -1.118,1.083 -0.08,0.636 -0.355,1.221 -0.651,1.794 -0.634,1.227 -1.481,2.332 -2.384,3.373 l -1.601,1.758 c -0.265,0.289 -0.567,0.548 -0.88,0.783 -0.602,0.453 -1.268,0.764 -1.895,1.178 l -2.14,1.341 -4.45,2.384 c -1.023,0.488 -2.083,0.839 -3.21,0.931 a 13.12,13.12 0 0 0 -2.033,0.327 c -0.609,0.149 -1.304,0.307 -1.86,0.6 -0.06,0.031 -0.121,0.065 -0.169,0.112 -0.055,0.055 -0.089,0.126 -0.122,0.196 -0.335,0.728 -0.604,1.591 -0.194,2.336 0.088,0.16 0.198,0.31 0.27,0.479 0.065,0.152 0.099,0.318 0.184,0.46 0.208,0.342 0.648,0.445 1.041,0.517 0.242,0.315 0.656,0.431 1.042,0.529 l 0.36,0.091 c 0.151,0.038 0.305,0.076 0.46,0.089 0.416,0.031 0.826,-0.129 1.175,-0.358 0.726,-0.474 1.246,-1.236 2.02,-1.628 l 0.462,-0.225 1.975,-0.281 c 1.635,-0.286 3.268,-0.654 4.793,-1.311 1.343,-0.578 2.623,-1.289 3.859,-2.066 1.011,-0.636 1.827,-1.493 2.752,-2.244 l 4.47,-3.923 c 1.311,-1.271 2.493,-2.73 3.152,-4.452 -0.569,0.528 -1.769,1.304 -2.503,0.67"
           class="G"
           id="path1104" />
        <path
           d="m 191.543,98.814 6.397,2.166 -8.985,2.092 -5.612,-2.248 8.2,-2.01"
           class="F"
           id="path1106" />
        <path
           d="m 215.021,77.665 c -1.843,1.022 -3.03,2.723 -4.009,4.535 -0.336,0.622 -0.853,1.292 -0.441,1.991 0.553,0.937 1.525,1.568 2.554,1.924 1.029,0.356 2.123,0.464 3.206,0.571 -0.059,-1.353 -0.114,-2.729 0.211,-4.045 0.255,-1.029 0.777,-1.961 1.132,-2.954 0.152,-0.421 0.135,-0.837 0.37,-1.223 0.238,-0.393 0.556,-0.735 0.908,-1.028 0.508,-0.421 1.088,-0.747 1.671,-1.056 -1.87,0.155 -3.797,0.335 -5.459,1.208 l -0.143,0.077"
           class="I"
           id="path1108" />
        <path
           d="m 231.207,83.637 -0.988,-1.953 c -0.285,-0.46 -0.728,-0.837 -1.073,-1.262 -0.847,-1.043 -1.812,-2.084 -2.351,-3.332 -0.727,-1.572 -0.837,-3.357 -0.782,-5.088 0.044,-1.393 0.152,-2.867 0.6,-4.196 0.124,-0.366 0.201,-0.946 0.437,-1.254 0.345,-0.45 1.107,-0.532 1.624,-0.557 0.547,-0.027 1.119,-0.015 1.609,0.232 0.748,0.378 1.14,1.214 1.379,2.017 0.46,1.544 0.56,3.17 0.585,4.78 0.043,2.889 -0.15,5.776 -0.397,8.655 -0.068,0.798 -0.141,1.6 -0.339,2.376 -0.111,-0.041 -0.174,-0.156 -0.227,-0.262 l -0.078,-0.157"
           fill="#ffe2dc"
           id="path1110" />
        <path
           d="m 231.773,165.42 c 0.129,-0.614 0.123,-1.256 0.31,-1.855 0.106,-0.341 0.293,-0.669 0.559,-0.911 0.323,-0.294 0.835,-0.356 1.131,-0.698 0.385,-0.445 0.594,-1.011 0.635,-1.596 0.047,-0.681 -0.114,-1.363 -0.355,-2.001 -0.255,-0.673 -0.618,-1.33 -1.191,-1.764 -0.496,1.18 -1.833,1.943 -3.101,1.772 -0.352,-0.019 -0.689,-0.173 -1.042,-0.194 -0.326,-0.02 -0.465,-0.079 -0.755,-0.257 l -0.13,-0.038 -0.1,0.109 -0.576,1.184 -2.206,4.785 -1.043,2.419 -0.206,0.468 c -0.236,0.541 -0.192,1.227 0.135,1.723 0.311,0.469 0.792,0.717 1.33,0.84 1.93,0.442 3.818,-0.175 5.248,-1.499 0.713,-0.66 1.159,-1.54 1.357,-2.485"
           class="D"
           id="path1112" />
        <path
           d="m 223.985,165.846 c -0.156,0.33 -0.315,0.662 -0.384,1.02 -0.12,0.624 0.036,1.098 0.594,1.429 1.643,0.972 3.881,-0.251 5.138,-1.376 0.464,-0.415 0.873,-0.891 1.216,-1.412 0.359,-0.547 0.557,-1.132 0.837,-1.714 0.555,-1.152 0.81,-2.425 1.513,-3.524 0.419,-0.656 0.685,-1.284 0.57,-2.076 -0.083,-0.571 -0.271,-1.126 -0.554,-1.629 l -0.071,-0.074 c -0.058,-0.019 -0.112,0.039 -0.148,0.089 -0.755,1.059 -2.184,1.587 -3.447,1.274 -0.439,-0.109 -0.866,-0.31 -1.317,-0.286 -1.11,0.058 -1.29,1.672 -1.565,2.46 l -1.467,3.78 -0.915,2.038"
           class="F"
           id="path1114" />
        <path
           d="m 212.958,161.561 c 0.355,0.661 1.143,0.967 1.886,1.063 2.051,0.264 4.211,-0.779 5.279,-2.549 0.337,-0.559 0.583,-1.193 1.066,-1.634 1.05,-0.955 2.774,-0.637 3.976,-1.392 1.539,-0.968 1.603,-3.289 0.708,-4.705 -0.274,-0.435 -0.691,-0.838 -1.205,-0.863 -0.034,0.528 0.039,0.993 -0.186,1.481 -0.232,0.503 -0.57,0.949 -0.941,1.356 -1.39,1.522 -3.217,2.559 -5.011,3.572 -0.54,0.306 -1.096,0.616 -1.709,0.711 -0.667,0.103 -1.347,-0.057 -2.02,-0.018 -0.645,0.037 -1.442,0.408 -1.808,0.969 -0.347,0.531 -0.322,1.471 -0.033,2.008"
           class="D"
           id="path1116" />
        <path
           d="m 222.249,151.937 c 0.774,-0.313 1.423,-0.927 1.777,-1.683 0.6,0.475 1.155,1.034 1.49,1.721 0.335,0.687 0.432,1.522 0.119,2.22 -0.33,0.741 -1.055,1.228 -1.791,1.567 -0.736,0.339 -1.527,0.575 -2.206,1.018 -1.357,0.884 -2.09,2.457 -3.268,3.567 a 6.13,6.13 0 0 1 -3.011,1.547 c -0.71,0.138 -1.577,0.02 -2.166,-0.421 -0.965,-0.724 -0.192,-2.192 0.25,-2.994 0.638,-1.156 1.615,-2.076 2.545,-2.994 1.07,-1.056 2.125,-2.168 2.778,-3.522 0.06,-0.123 0.123,-0.256 0.24,-0.327 0.236,-0.143 0.442,0.195 0.635,0.297 0.264,0.141 0.565,0.209 0.861,0.239 0.58,0.058 1.204,-0.017 1.747,-0.236"
           class="F"
           id="path1118" />
        <path
           d="m 225.857,151.085 -0.011,-0.324 -0.123,-9.259 c -0.022,-3.353 -0.17,-6.733 -0.96,-10.006 a 105.66,105.66 0 0 1 -2.915,-22.329 c -1.256,0.002 -2.339,-0.859 -3.206,-1.767 a 17.56,17.56 0 0 1 -2.983,-4.222 c -0.534,-1.058 -1.536,-1.244 -1.89,0.06 -0.272,1.005 -0.206,2.258 -0.333,3.299 -0.342,2.819 -0.604,5.659 -0.52,8.501 0.048,1.617 0.209,3.232 0.527,4.819 0.536,2.666 1.388,5.252 2.144,7.86 1.138,3.927 1.378,8.029 1.749,12.097 l 0.439,4.818 0.367,4.693 c 0.039,0.769 0.05,1.539 0.076,2.309 0.01,0.327 -0.045,0.659 0.024,0.983 0.085,0.399 0.461,0.527 0.818,0.587 1.732,0.292 3.581,0.43 5.185,-0.287 a 6.44,6.44 0 0 0 0.846,-0.464 c 0.223,-0.143 0.62,-0.333 0.713,-0.574 0.079,-0.206 0.066,-0.519 0.051,-0.795"
           fill="#e6907e"
           id="path1120" />
        <path
           d="m 232.812,134.561 c -0.6,-7.499 2.794,-14.963 1.933,-22.517 -0.482,-4.224 -1.897,-8.34 -4.125,-11.96 0.128,0.208 -0.279,1.511 -0.27,1.846 0.015,0.558 0.077,0.783 -0.248,1.284 -0.602,0.924 -1.571,1.64 -2.587,2.044 -1.145,0.456 -2.402,0.564 -3.621,0.433 -0.814,-0.087 -1.674,-0.408 -2.451,-0.653 -0.238,-0.076 -2.096,-0.956 -2.001,-1.197 -1.395,3.571 -1.471,7.638 -0.214,11.259 0.169,0.491 0.377,0.992 0.769,1.333 0.378,0.329 0.893,0.475 1.262,0.817 1.103,1.021 1.099,3.138 1.266,4.508 0.327,2.676 0.944,5.288 1.357,7.946 0.356,2.299 0.671,4.652 1.201,6.94 0.673,2.91 1.524,5.787 1.738,8.797 0.129,1.821 0.085,3.651 0.041,5.477 l -0.161,6.649 c -0.004,0.16 -0.006,0.329 0.07,0.471 0.059,0.112 0.161,0.195 0.265,0.27 1.186,0.859 2.77,0.965 4.216,0.735 1.059,-0.169 2.206,-0.596 2.659,-1.567 0.175,-0.376 0.226,-0.796 0.274,-1.207 0.364,-3.075 0.729,-6.162 0.656,-9.258 -0.099,-4.213 -1.005,-8.352 -2.029,-12.448"
           fill="#e9ab9e"
           id="path1122" />
        <path
           d="m 230.811,78.435 -0.384,-0.237 -3.599,-2.22 c -0.388,-0.24 -0.842,-0.602 -1.315,-0.505 l -1.582,0.388 c -1.602,0.343 -3.231,0.54 -4.858,0.724 -0.845,0.096 -1.702,0.192 -2.488,0.514 -0.718,0.294 -1.184,0.657 -1.54,1.35 -0.325,0.63 -0.5,1.328 -0.625,2.021 -0.475,2.624 -0.502,5.304 -1.165,7.892 -0.287,1.122 -0.69,2.265 -0.626,3.44 0.053,0.96 0.494,1.796 0.962,2.613 0.98,1.709 0.731,3.767 0.455,5.631 l -0.745,4.439 -0.332,1.97 c -0.141,0.621 -0.048,1.294 0.277,1.843 0.206,0.348 0.492,0.64 0.776,0.928 0.576,0.581 1.163,1.164 1.859,1.595 0.658,0.406 1.397,0.666 2.148,0.849 2.617,0.639 5.383,0.374 7.999,-0.272 1.965,-0.486 3.898,-1.198 5.611,-2.289 0.659,-0.419 1.746,-0.906 2.059,-1.678 0.2,-0.494 -0.051,-1.178 -0.129,-1.693 l -0.628,-5.505 c -0.237,-2.51 -0.319,-5.078 0.333,-7.537 0.479,-1.81 1.338,-3.493 2.314,-5.083 0.439,-0.715 1.115,-1.259 1.466,-2.032 0.378,-0.832 0.079,-1.605 -0.383,-2.357 -0.872,-1.418 -2.048,-2.361 -3.418,-3.251 l -2.443,-1.538"
           class="D"
           id="path1124" />
        <path
           d="m 228.385,77.629 c 0.091,-0.201 0.121,-0.425 0.069,-0.644 -0.07,-0.291 -0.351,-0.47 -0.532,-0.698 -0.436,-0.549 -0.667,-1.231 -0.845,-1.909 a 15.88,15.88 0 0 1 -0.501,-3.262 c 0.019,0.404 -0.236,0.929 -0.481,1.231 -0.334,0.411 -0.712,0.787 -1.143,1.098 -0.817,0.589 -1.849,0.927 -2.843,0.764 -0.367,-0.061 -0.59,-0.149 -0.818,-0.461 0.121,0.164 -0.107,1.026 -0.142,1.235 -0.105,0.628 -0.437,1.109 -0.729,1.668 -0.578,1.106 -0.648,2.465 -0.187,3.625 0.125,0.314 0.303,0.63 0.6,0.792 0.142,0.076 0.305,0.084 0.444,0.15 0.174,0.084 0.285,0.177 0.49,0.201 0.159,0.018 0.329,0.002 0.486,0.035 0.143,0.031 0.268,0.079 0.42,0.089 0.458,0.027 0.91,-0.13 1.306,-0.361 0.396,-0.231 0.742,-0.536 1.093,-0.83 l 2.415,-1.84 c 0.288,-0.199 0.585,-0.399 0.786,-0.684 0.044,-0.062 0.083,-0.128 0.112,-0.196"
           class="G"
           id="path1126" />
        <g
           fill="#455180"
           id="g1132">
          <path
             d="m 227.693,76.088 0.041,0.136 c 0.093,0.362 0.113,0.684 -0.068,1.008 -0.201,0.36 -0.442,0.694 -0.706,1.011 -0.554,0.663 -1.232,1.208 -1.925,1.722 l -0.662,0.472 -0.693,0.439 c -0.375,0.201 -0.802,0.302 -1.217,0.392 -0.204,0.045 -0.413,0.083 -0.603,0.171 l -0.041,0.031 c -0.044,0.074 0.15,0.098 0.186,0.108 a 2.4,2.4 0 0 1 0.251,0.088 2.92,2.92 0 0 1 0.454,0.233 c 0.291,0.185 0.543,0.423 0.764,0.688 0.333,0.399 0.633,0.846 0.742,1.355 0.338,-0.47 0.837,-0.795 1.304,-1.138 0.83,-0.611 1.504,-1.358 2.26,-2.044 0.297,-0.269 0.55,-0.581 0.798,-0.896 0.446,-0.566 0.895,-1.188 0.946,-1.906 0.02,-0.274 -0.025,-0.562 -0.178,-0.791 -0.088,-0.133 -0.209,-0.24 -0.307,-0.366 -0.225,-0.289 -0.25,-0.611 -0.377,-0.934 -0.127,-0.323 -0.282,-0.649 -0.544,-0.885 -0.171,-0.154 -0.378,-0.211 -0.602,-0.235 -0.075,-0.008 -0.26,-0.048 -0.314,0.03 -0.048,0.069 0.011,0.103 0.037,0.168 l 0.227,0.631 0.227,0.511"
             id="path1128" />
          <path
             d="m 221.008,81.828 c -0.352,0.212 -0.66,0.493 -1.016,0.699 -0.356,0.206 -0.79,0.333 -1.18,0.2 -0.03,-0.01 -0.031,-0.725 -0.037,-0.802 l -0.029,-0.804 c 0.006,-0.58 0.048,-1.162 0.173,-1.73 a 8.64,8.64 0 0 1 0.412,-1.304 c 0.153,-0.39 0.327,-0.777 0.564,-1.125 0.092,-0.136 0.185,-0.275 0.302,-0.392 0.089,-0.09 0.264,-0.265 0.395,-0.265 -0.112,0.213 -0.161,0.427 -0.211,0.658 a 3.58,3.58 0 0 0 -0.102,0.736 c -0.005,0.475 0.069,0.948 0.143,1.418 0.12,0.762 0.402,1.37 0.993,1.889 0.105,0.093 0.59,0.35 0.453,0.528 -0.044,0.058 -0.361,0.07 -0.446,0.098 a 2.21,2.21 0 0 0 -0.415,0.196"
             id="path1130" />
        </g>
        <path
           d="m 214.257,65.915 c 0.072,0.093 0.185,0.147 0.3,0.175 0.211,0.051 0.434,0.019 0.649,-0.012 l 1.209,-0.175 2.257,-0.393 c 0.044,-0.206 -0.051,-0.423 -0.203,-0.57 -0.152,-0.147 -0.35,-0.232 -0.551,-0.298 -0.909,-0.299 -1.907,-0.238 -2.83,0.017 -0.3,0.083 -0.573,0.23 -0.766,0.481 -0.152,0.197 -0.227,0.565 -0.064,0.774"
           class="D"
           id="path1134" />
        <path
           d="m 229.085,70.89 c 0.545,-1.069 0.812,-2.37 0.889,-3.493 0.058,-0.837 -0.062,-1.681 -0.287,-2.49 -0.215,-0.774 -0.531,-1.541 -1.005,-2.194 -0.746,-1.028 -1.978,-1.691 -3.204,-1.928 -0.595,-0.115 -1.203,-0.185 -1.808,-0.155 -1.356,0.068 -2.67,0.653 -3.668,1.574 -0.635,0.585 -1.141,1.303 -1.502,2.087 -0.377,0.819 -0.549,1.715 -0.794,2.579 -0.06,0.211 -0.12,0.425 -0.116,0.644 0.004,0.241 0.086,0.474 0.101,0.714 0.029,0.46 -0.184,0.894 -0.309,1.337 -0.349,1.235 -0.012,2.549 0.324,3.787 l 0.602,2.09 c 0.077,0.241 0.164,0.491 0.347,0.665 0.306,0.291 0.779,0.289 1.198,0.255 a 18.33,18.33 0 0 0 1.822,-0.241 c 1.36,-0.249 2.721,-0.667 3.833,-1.487 0.56,-0.412 1.077,-0.98 1.132,-1.673 l 0.032,-0.164 c 0.047,-0.086 0.152,-0.119 0.246,-0.146 0.59,-0.164 1.204,-0.386 1.59,-0.862 0.22,-0.272 0.411,-0.576 0.578,-0.901"
           class="C"
           id="path1136" />
        <path
           d="m 225.829,67.938 a 3.43,3.43 0 0 0 0.807,3.07 c 0.243,-0.587 0.627,-1.16 1.212,-1.405 0.585,-0.245 1.391,-0.019 1.593,0.583 0.34,-0.956 0.649,-1.932 0.758,-2.941 0.109,-1.009 0.006,-2.061 -0.443,-2.971 -0.13,-0.263 -0.29,-0.515 -0.497,-0.724 -0.315,-0.321 -0.728,-0.53 -1.156,-0.668 -0.333,-0.108 -0.698,-0.174 -1.031,-0.064 -1.052,0.35 -0.855,1.629 -0.733,2.464 0.141,0.966 -0.291,1.738 -0.51,2.658 m -2.861,-0.005 c -0.161,-0.083 -0.322,-0.166 -0.498,-0.213 a 1.86,1.86 0 0 0 -0.53,-0.05 7.25,7.25 0 0 0 -0.882,0.096 l -1.002,0.152 -0.148,0.02 c -0.117,0.002 -0.159,0.178 -0.086,0.269 0.073,0.091 0.202,0.111 0.319,0.117 0.343,0.018 0.683,-0.035 1.02,-0.093 0.312,-0.054 0.693,-0.177 1.01,-0.126 L 223,68.27 a 5.87,5.87 0 0 1 1.051,0.304 c -0.381,-0.188 -0.707,-0.447 -1.082,-0.64 m -5.014,-0.435 c 0.205,0.033 0.388,0.149 0.549,0.28 l 0.104,0.004 -0.004,-0.03 c -0.118,-0.366 -0.655,-0.759 -1.047,-0.732 -0.143,0.01 -0.331,0.143 -0.283,0.316 0.058,0.218 0.511,0.135 0.681,0.162"
           fill="#ffe2dc"
           id="path1138" />
        <path
           d="m 223.221,71.909 c -0.039,0.718 -0.653,1.268 -1.37,1.23 a 1.301384,1.301384 0 0 1 0.14,-2.599 c 0.717,0.039 1.268,0.653 1.23,1.37 m -5.767,-0.987 c 0.083,0.06 0.202,0.078 0.289,0.023 0.069,-0.045 0.105,-0.126 0.132,-0.204 a 1.85,1.85 0 0 0 0.1,-0.569 c 0.002,-0.107 -0.007,-0.216 -0.049,-0.313 -0.042,-0.097 -0.125,-0.183 -0.229,-0.206 -0.609,-0.135 -0.56,1.04 -0.242,1.269"
           class="R"
           id="path1140" />
        <path
           d="m 227.124,60.54 c 0.432,0.201 0.847,0.449 1.247,0.75 a 4.18,4.18 0 0 1 1.486,1.984 c 0.552,1.511 0.678,3.133 0.328,4.7 -0.046,0.204 -0.206,1.124 -0.44,1.181 -0.105,0.026 -0.2,-0.061 -0.275,-0.14 a 11.75,11.75 0 0 0 -3.945,-2.739 c -1.662,-0.703 -3.474,-1.018 -5.097,-1.806 -0.247,-0.12 -0.408,-0.319 -0.639,-0.441 -0.302,-0.159 -0.901,0.037 -1.078,-0.279 -0.165,-0.297 0.161,-0.882 0.286,-1.151 0.362,-0.781 0.927,-1.511 1.697,-1.921 1.257,-0.669 2.507,-0.929 3.936,-0.793 0.892,0.085 1.721,0.295 2.495,0.655"
           class="D"
           id="path1142" />
        <path
           d="m 215.9,64.181 c -0.429,0.098 -0.872,0.199 -1.228,0.458 -0.186,0.136 -0.343,0.316 -0.429,0.531 -0.078,0.196 -0.176,0.496 -0.037,0.686 a 0.57,0.57 0 0 0 0.298,0.215 c -0.218,-0.063 -0.161,-0.412 -0.118,-0.572 0.074,-0.284 0.312,-0.504 0.578,-0.629 0.24,-0.113 0.503,-0.16 0.762,-0.201 a 3.91,3.91 0 0 1 0.795,-0.044 c 0.536,0.025 1.074,0.113 1.57,0.32 1.735,0.724 2.699,2.778 4.5,3.32 0.703,0.213 1.466,0.163 2.175,-0.031 0.529,-0.145 1.034,-0.367 1.523,-0.616 0.191,-0.097 0.555,-0.213 0.675,-0.401 0.12,-0.188 -0.128,-0.356 -0.274,-0.448 -1.403,-0.884 -2.895,-1.683 -4.427,-2.325 l -1.983,-0.736 -0.99,-0.299 c -0.31,-0.066 -0.62,0.078 -0.924,0.159 l -2.465,0.611"
           class="I"
           id="path1144" />
        <path
           d="m 207.943,109.686 7.557,3.001 8.004,-5.27 -6.943,-2.622 -8.618,4.892"
           class="F"
           id="path1146" />
        <path
           d="m 207.944,109.665 0.064,0.96 7.486,2.983 0.006,-0.922 -7.556,-3.022"
           fill="#d8d8d8"
           id="path1148" />
        <path
           d="m 215.494,113.608 7.972,-5.225 0.038,-0.966 -8.004,5.27 -0.006,0.922"
           fill="#a6a6a6"
           id="path1150" />
        <path
           d="m 241.127,98.36 c -0.164,-0.968 -0.411,-1.92 -0.657,-2.871 l -1.227,-4.736 c -0.451,-1.74 -1.034,-3.494 -1.928,-5.065 -0.515,-0.905 -1.37,-2.013 -2.413,-2.322 -0.872,-0.258 -1.828,0.11 -2.523,0.696 -0.39,0.329 -0.727,0.735 -0.912,1.211 -0.225,0.58 -0.21,1.223 -0.147,1.84 0.172,1.703 0.75,3.291 1.368,4.874 l 2.036,4.832 c 0.247,0.566 0.526,1.043 0.485,1.69 -0.035,0.564 -0.292,1.088 -0.62,1.539 -0.418,0.573 -0.945,1.058 -1.489,1.513 a 22.61,22.61 0 0 1 -4.869,3.11 c -0.488,0.23 -0.997,0.447 -1.536,0.516 -0.483,0.062 -0.964,-0.057 -1.448,-0.072 -0.8,-0.024 -1.673,-0.056 -2.371,0.399 -0.451,0.295 -0.762,0.757 -1.044,1.216 -0.18,0.292 -0.355,0.593 -0.609,0.825 -0.351,0.323 -0.818,0.484 -1.223,0.736 -0.113,0.069 -0.229,0.156 -0.269,0.282 -0.051,0.158 0.037,0.336 0.174,0.431 0.137,0.095 0.309,0.121 0.474,0.125 a 2.05,2.05 0 0 0 1.349,-0.475 c 0.216,-0.182 0.402,-0.415 0.663,-0.523 0.087,0.197 -0.056,0.416 -0.196,0.58 a 9.29,9.29 0 0 1 -2,1.753 l -0.928,0.636 c -0.265,0.178 -0.533,0.316 -0.622,0.658 l -0.003,0.168 c 0.041,0.115 0.181,0.156 0.302,0.171 0.447,0.053 0.899,-0.047 1.323,-0.198 a 5.41,5.41 0 0 0 1.463,-0.793 c 0.171,-0.13 0.376,-0.293 0.604,-0.269 0.244,0.025 0.501,0.118 0.748,0.16 0.436,0.076 0.882,0.151 1.32,0.088 0.943,-0.136 1.675,-0.877 2.267,-1.624 1.275,-1.607 3.249,-1.908 5.05,-2.666 1.935,-0.815 3.809,-1.768 5.666,-2.748 0.963,-0.508 1.956,-1.003 2.779,-1.728 0.375,-0.329 0.749,-0.685 0.918,-1.16 0.318,-0.894 0.201,-1.88 0.045,-2.797"
           class="C"
           id="path1152" />
        <path
           d="m 232.348,82.578 c -0.437,0.611 -0.727,1.316 -0.939,2.036 -0.458,1.553 -0.571,3.211 -0.282,4.805 0.169,0.93 0.472,1.829 0.773,2.725 1.378,0.347 2.832,-0.023 4.166,-0.511 1.124,-0.411 2.3,-0.984 2.839,-2.053 a 1.11,1.11 0 0 0 0.138,-0.464 c 0.002,-0.114 -0.024,-0.226 -0.049,-0.336 a 24.44,24.44 0 0 0 -0.949,-3.036 c -0.512,-1.349 -1.169,-2.68 -2.121,-3.777 -0.258,-0.298 -0.549,-0.587 -0.919,-0.725 -1.091,-0.405 -2.078,0.527 -2.657,1.337"
           class="I"
           id="path1154" />
        <path
           d="m 190.864,98.481 c -0.258,0.263 -0.474,0.564 -0.688,0.864 -0.083,0.116 -0.166,0.234 -0.215,0.368 -0.049,0.134 -0.058,0.288 0.005,0.415 0.069,0.14 0.217,0.227 0.368,0.266 0.369,0.097 0.763,-0.051 1.071,-0.275 0.308,-0.224 0.552,-0.524 0.828,-0.786 0.118,-0.112 0.243,-0.218 0.389,-0.289 0.328,-0.161 0.712,-0.126 1.077,-0.135 0.365,-0.009 0.772,-0.09 0.977,-0.392 0.074,-0.11 0.115,-0.239 0.14,-0.369 0.041,-0.215 0.041,-0.448 -0.058,-0.643 -0.089,-0.175 -0.251,-0.304 -0.423,-0.399 -0.533,-0.291 -1.181,-0.29 -1.776,-0.171 -0.345,0.069 -0.769,0.191 -0.945,0.524 -0.088,0.167 -0.149,0.34 -0.258,0.496 -0.138,0.2 -0.324,0.355 -0.493,0.527"
           class="C"
           id="path1156" />
        <g
           class="H"
           id="g1162">
          <path
             d="m 193.137,191.239 h -34.896 c -1.927,-3.605 -0.435,-7.679 4.485,-10.519 3.534,-2.04 8.169,-3.06 12.815,-3.06 4.685,0 9.379,1.036 12.964,3.106 4.921,2.841 6.468,6.89 4.632,10.472"
             id="path1158" />
          <path
             d="m 175.754,198.53 c -4.708,0 -9.427,-1.036 -13.031,-3.106 -2.202,-1.264 -3.732,-2.769 -4.589,-4.365 h 35.076 c -0.833,1.617 -2.357,3.138 -4.575,4.412 -3.551,2.04 -8.212,3.059 -12.882,3.059"
             id="path1160" />
        </g>
        <path
           d="m 157.068,117.642 c -0.547,0.782 -1.107,1.597 -1.278,2.536 -0.092,0.509 -0.064,1.037 0.051,1.541 0.03,0.13 0.069,0.263 0.151,0.369 0.199,0.255 0.578,0.267 0.899,0.23 1.567,-0.182 3.019,-0.983 4.177,-2.055 0.489,-0.454 0.931,-0.957 1.351,-1.476 l 1.238,-1.425 c 0.868,-0.997 1.626,-2.092 2.252,-3.257 0.159,-0.296 0.313,-0.641 0.199,-0.957 -0.183,-0.057 -0.347,0.12 -0.468,0.27 -0.201,0.247 -0.486,0.627 -0.814,0.682 -0.399,0.068 -0.876,0.015 -1.285,0.034 -0.318,0.013 -0.667,0.017 -0.913,-0.183 -0.241,-0.197 -0.312,-0.529 -0.462,-0.802 -0.236,-0.427 -0.686,-0.724 -1.181,-0.674 -0.374,0.038 -0.507,0.239 -0.693,0.536 l -2.032,2.928 -1.191,1.706"
           class="G"
           id="path1164" />
        <path
           d="m 161.305,109.021 -0.698,1.447 -0.733,1.635 c -0.165,0.378 -0.627,1.025 -0.484,1.445 0.039,0.113 0.115,0.208 0.194,0.298 0.906,1.03 2.281,1.505 3.617,1.812 1.033,0.237 2.153,0.39 3.122,-0.036 -0.537,-2.013 -0.45,-4.133 -0.35,-6.214 l 0.273,-3.283 c 0.11,-0.731 0.18,-1.483 0.547,-2.141 0.262,-0.468 1.176,-1.056 1.72,-1.116 -1.93,0.213 -3.917,0.941 -5.078,2.583 l -1.214,1.883 -0.916,1.69"
           class="S"
           id="path1166" />
        <path
           d="m 178.754,187.787 -0.76,1.115 -1.97,2.743 -0.639,0.928 c -0.134,0.199 -0.36,0.542 -0.597,0.204 -0.072,-0.102 -0.085,-0.235 -0.076,-0.359 -0.436,0.527 -0.72,1.173 -0.83,1.847 -0.097,0.594 -0.124,1.414 0.23,1.931 0.191,0.277 0.63,0.479 0.937,0.586 0.797,0.279 1.678,0.201 2.503,0.128 0.779,-0.07 1.546,-0.268 2.267,-0.572 1.263,-0.533 2.371,-1.426 3.16,-2.547 0.246,-0.349 0.462,-0.723 0.604,-1.125 0.164,-0.462 0.23,-0.967 0.47,-1.401 0.252,-0.454 0.778,-0.717 1.171,-1.04 1.099,-0.903 1.597,-2.559 1.243,-3.929 -0.112,-0.437 -0.347,-0.832 -0.579,-1.221 a 1.43,1.43 0 0 1 -0.059,0.741 c -0.02,0.058 -0.048,0.118 -0.1,0.149 -0.143,0.084 -0.557,-0.477 -0.699,-0.571 -0.319,-0.209 -0.672,-0.365 -1.038,-0.471 a 6.47,6.47 0 0 0 -1.348,-0.239 c -0.291,-0.02 -0.622,-0.017 -0.907,-0.072 -0.072,-0.014 -0.678,-0.306 -0.585,-0.416 -0.853,1.012 -1.496,2.181 -2.209,3.296 l -0.19,0.294"
           class="K"
           id="path1168" />
        <path
           d="m 178.754,186.493 -4.559,6.732 c -0.275,0.504 -0.48,1.159 -0.068,1.648 0.809,0.959 2.304,0.844 3.425,0.744 a 7.61,7.61 0 0 0 2.267,-0.573 7.41,7.41 0 0 0 3.16,-2.546 c 0.246,-0.349 0.462,-0.722 0.604,-1.125 0.164,-0.462 0.23,-0.967 0.47,-1.4 0.252,-0.454 0.778,-0.717 1.171,-1.04 0.573,-0.472 0.98,-1.145 1.109,-1.876 0.129,-0.731 -0.026,-1.51 -0.442,-2.124 -0.44,-0.648 -1.146,-1.085 -1.899,-1.303 -0.438,-0.127 -0.892,-0.208 -1.348,-0.239 -0.291,-0.02 -0.622,-0.017 -0.907,-0.072 -0.072,-0.014 -0.678,-0.306 -0.585,-0.416 -0.853,1.012 -1.496,2.181 -2.209,3.297 l -0.19,0.293"
           class="F"
           id="path1170" />
        <path
           d="m 164.966,184.788 -0.663,0.559 c -0.168,0.15 -0.501,0.621 -0.734,0.625 -0.211,0.005 -0.463,-0.335 -0.363,-0.536 -0.183,0.368 -0.446,0.69 -0.66,1.04 -0.448,0.737 -0.578,2.263 0.029,2.976 0.375,0.441 0.953,0.677 1.53,0.73 0.577,0.053 1.158,-0.063 1.713,-0.229 1.529,-0.456 2.938,-1.304 4.057,-2.441 0.599,-0.609 1.141,-1.318 1.918,-1.671 0.688,-0.313 1.472,-0.305 2.224,-0.385 0.983,-0.104 2.116,-0.572 2.436,-1.596 a 5.62,5.62 0 0 0 -0.164,-3.791 c -0.058,0.092 -0.058,0.211 -0.11,0.307 -0.175,0.317 -0.434,-0.159 -0.534,-0.274 -0.106,-0.122 -0.222,-0.236 -0.347,-0.339 l -0.364,-0.251 a 1,1 0 0 1 -0.338,0.917 c -0.063,0.053 -0.142,0.099 -0.222,0.081 -0.122,-0.028 -0.055,-0.148 -0.116,-0.205 -0.082,-0.076 -0.269,-0.107 -0.375,-0.135 -0.235,-0.065 -0.477,-0.098 -0.717,-0.138 -1.019,-0.165 -2.256,-0.071 -3.053,0.647 l -2.898,2.453 -2.253,1.656"
           class="K"
           id="path1172" />
        <path
           d="m 164.966,183.594 -0.663,0.559 c -0.574,0.513 -1.12,1.075 -1.485,1.753 -0.3,0.557 -0.724,1.787 -0.242,2.352 0.375,0.441 0.953,0.677 1.53,0.729 0.577,0.052 1.158,-0.062 1.713,-0.228 a 9.55,9.55 0 0 0 4.057,-2.442 c 0.599,-0.609 1.141,-1.317 1.918,-1.671 0.688,-0.314 1.472,-0.305 2.224,-0.385 0.876,-0.093 1.627,-0.355 2.149,-1.09 0.502,-0.707 0.421,-1.943 0.232,-2.756 -0.199,-0.855 -0.701,-1.665 -1.464,-2.1 0.057,0.336 -0.077,0.698 -0.338,0.917 -0.063,0.052 -0.142,0.098 -0.222,0.081 -0.122,-0.028 -0.055,-0.149 -0.116,-0.205 -0.082,-0.076 -0.269,-0.107 -0.375,-0.136 -0.235,-0.065 -0.477,-0.098 -0.717,-0.138 -1.019,-0.164 -2.256,-0.071 -3.053,0.648 l -2.898,2.453 -2.253,1.656"
           class="F"
           id="path1174" />
        <path
           d="m 175.644,177.591 -0.041,-2.123 -0.022,-5.352 -0.052,-6.077 -0.095,-4.429 -0.03,-0.554 c 0.219,-5.898 -0.432,-11.795 -1.092,-17.662 -0.145,0.255 -0.296,0.517 -0.526,0.7 -0.23,0.183 -0.563,0.267 -0.823,0.131 -0.184,-0.098 -0.3,-0.285 -0.405,-0.465 -0.548,-0.935 -1.053,-1.894 -1.514,-2.875 -0.474,-1.008 -0.924,-2.074 -1.758,-2.813 -0.437,-0.387 -1.005,-0.653 -1.588,-0.717 -0.395,-0.043 -0.899,0.182 -1.245,-0.058 -0.227,-0.159 -0.625,-0.929 -0.567,-1.211 -0.826,4.048 -0.645,8.157 -0.291,12.252 0.234,2.698 2.792,21.137 3.126,23.874 l 0.948,7.657 c 0.072,0.565 0.065,1.136 0.169,1.697 0.091,0.494 0.495,0.541 0.957,0.6 a 13.79,13.79 0 0 0 1.586,0.11 c 1.025,0.011 2.101,-0.109 2.946,-0.688 0.332,-0.227 0.329,-0.681 0.329,-1.042 l -0.012,-0.954"
           fill="#858585"
           id="path1176" />
        <path
           d="m 185.889,166.458 c -1.069,-2.906 -1.03,-5.957 -0.798,-9 0.274,-3.578 0.709,-7.151 0.668,-10.738 -0.04,-3.556 -0.071,-7.552 -1.586,-10.839 -1.363,2.597 -3.071,5.372 -6.324,5.604 -1.315,0.08 -2.613,-0.308 -3.841,-0.785 -0.641,-0.249 -1.66,-0.237 -2.173,-0.684 -0.32,-0.279 -1.134,-1.802 -0.822,-2.224 -0.92,1.245 -1.29,2.844 -1.209,4.389 0.081,1.545 0.588,3.045 1.283,4.429 0.142,0.282 0.314,0.613 0.609,0.761 0.284,0.142 0.379,0.02 0.589,0.296 0.433,0.569 0.603,1.692 0.843,2.371 l 1.64,4.725 c 0.688,2.037 1.348,4.085 1.913,6.159 0.412,1.509 0.651,3.064 1.155,4.547 0.71,2.09 1.318,4.305 1.585,6.506 0.239,1.974 0.418,3.955 0.535,5.94 0.109,1.951 0.078,3.892 0.148,5.841 0.025,0.691 0.011,1.066 0.707,1.366 1.456,0.628 3.23,0.453 4.536,-0.448 0.076,-0.053 0.153,-0.109 0.201,-0.189 0.051,-0.084 0.065,-0.186 0.077,-0.284 l 0.573,-4.796 c 0.162,-1.518 0.185,-3.058 0.36,-4.56 0.327,-2.813 0.308,-5.731 -0.669,-8.388"
           class="T"
           id="path1178" />
        <path
           d="m 167.4,103.035 c -0.427,0.106 -0.844,0.236 -1.229,0.411 -0.622,0.284 -1.025,1.053 -1.132,1.705 -0.757,4.582 0.2,9.247 0.698,13.864 0.715,6.633 0.168,13.1 -0.488,19.704 -0.022,0.227 -0.045,0.457 0,0.68 0.089,0.453 0.515,0.79 0.786,1.144 0.298,0.387 0.651,0.723 1.042,1.014 0.83,0.62 1.805,1.04 2.796,1.33 3.708,1.085 7.709,0.883 11.451,-0.081 1.24,-0.319 2.5,-0.744 3.449,-1.604 0.662,-0.6 0.449,-1.082 0.364,-1.847 -0.114,-1.031 -0.17,-2.073 -0.242,-3.107 -0.149,-2.14 -0.506,-12.183 -0.506,-13.352 0.064,-3.191 0.242,-6.446 1.396,-9.421 0.335,-0.861 0.746,-1.69 1.099,-2.543 0.139,-0.338 0.288,-0.674 0.406,-1.021 0.08,-0.234 -0.116,-0.95 0.378,-0.813 0.15,0.041 0.245,0.187 0.376,0.272 -0.055,-0.352 -0.275,-0.653 -0.489,-0.938 -0.416,-0.555 -3.023,-2.544 -3.844,-3.11 l -3.52,-2.431 -2.575,-1.822 c 0.24,0.169 -0.255,0.673 -0.406,0.717 -0.335,0.1 -0.88,-0.084 -1.235,-0.108 -1.054,-0.073 -2.403,-0.079 -3.392,0.326 -0.498,0.204 -1.082,0.225 -1.613,0.317 -0.576,0.1 -1.15,0.21 -1.722,0.331 -0.594,0.125 -1.232,0.23 -1.849,0.383"
           class="I"
           id="path1180" />
        <path
           d="m 192.861,123.609 -1.111,-3.715 c -0.317,-0.922 -0.674,-1.854 -1.292,-2.61 -0.618,-0.756 -1.549,-1.315 -2.524,-1.256 -0.416,0.025 -0.823,0.161 -1.181,0.376 a 2.9,2.9 0 0 0 -0.946,0.918 c -0.594,0.933 -0.582,2.034 -0.318,3.074 0.293,1.15 0.717,2.271 1.153,3.376 l 0.552,1.342 c 0.14,0.325 0.501,0.788 0.206,1.112 -0.166,0.183 -0.427,0.347 -0.633,0.483 l -1.567,0.978 c -1.624,0.964 -6.726,3.217 -7.228,3.396 l -1.025,0.342 c -0.258,0.068 -0.595,0.19 -0.843,0.044 a 4.79,4.79 0 0 1 -0.435,-0.294 c -0.98,-0.721 -2.022,-1.36 -3.11,-1.906 -0.328,-0.164 -0.729,-0.32 -1.045,-0.134 -0.341,0.199 -0.376,0.714 -0.164,1.047 0.212,0.333 0.592,0.517 0.964,0.648 0.083,0.03 0.18,0.072 0.196,0.159 0.011,0.062 -0.027,0.124 -0.071,0.169 -0.23,0.241 -0.613,0.228 -0.942,0.175 -2.066,-0.33 -3.93,-1.53 -6.01,-1.761 -0.183,-0.02 -0.375,-0.032 -0.548,0.036 -0.633,0.248 -0.18,1.021 0.139,1.317 0.925,0.856 2.142,1.315 3.337,1.716 2.503,0.841 5.058,1.523 7.632,2.114 0.468,0.107 0.939,0.04 1.389,-0.117 0.414,-0.145 9.208,-2.537 12.593,-3.506 0.649,-0.186 1.269,-0.385 1.887,-0.675 0.517,-0.241 0.955,-0.557 1.217,-1.073 0.312,-0.613 0.333,-1.411 0.322,-2.086 -0.021,-1.248 -0.284,-2.479 -0.593,-3.689"
           class="C"
           id="path1182" />
        <path
           d="m 170.409,102.252 0.416,0.061 0.474,0.106 c 0.373,0.091 0.378,0.35 0.378,0.679 l -0.034,1.169 -0.052,0.663 c -0.018,0.19 -0.074,0.393 -0.069,0.581 0.004,0.167 0.06,0.329 0.132,0.48 0.314,0.657 0.972,1.136 1.693,1.233 0.832,0.112 1.65,-0.255 2.373,-0.68 1.305,-0.769 2.505,-1.796 3.204,-3.14 0.119,-0.229 0.223,-0.469 0.254,-0.725 0.079,-0.667 -0.347,-1.272 -0.627,-1.883 -1.085,-2.366 -0.018,-5.203 -0.693,-7.716 -0.613,1.584 -1.715,2.95 -3.026,4.033 -1.311,1.083 -2.823,1.894 -4.385,2.564 -0.403,0.174 -0.82,0.344 -1.137,0.648 a 1.43,1.43 0 0 0 -0.35,0.541 c -0.038,0.107 -0.048,0.211 -0.07,0.321 l -0.018,0.098 -0.119,0.029 a 0.74,0.74 0 0 0 0.361,0.589 c 0.209,0.131 0.448,0.209 0.688,0.259 0.2,0.042 0.403,0.065 0.606,0.09"
           class="G"
           id="path1184" />
        <g
           class="S"
           id="g1190">
          <path
             d="m 178.98,101.737 c 0.061,0.158 0.111,0.327 0.117,0.487 0.01,0.262 -0.086,0.429 -0.21,0.658 a 6.4,6.4 0 0 1 -0.722,1.039 c -0.553,0.663 -1.231,1.208 -1.925,1.722 l -0.662,0.472 -0.693,0.439 c -0.376,0.202 -0.802,0.302 -1.217,0.392 -0.204,0.045 -0.413,0.082 -0.603,0.171 l -0.041,0.031 c -0.044,0.074 0.149,0.098 0.186,0.108 a 2.51,2.51 0 0 1 0.25,0.088 c 0.158,0.064 0.31,0.142 0.455,0.233 a 3.34,3.34 0 0 1 0.764,0.687 c 0.333,0.4 0.633,0.847 0.741,1.356 0.339,-0.47 0.837,-0.795 1.304,-1.139 0.83,-0.611 1.504,-1.357 2.26,-2.043 0.297,-0.269 0.55,-0.581 0.797,-0.896 0.446,-0.566 0.896,-1.188 0.946,-1.906 0.02,-0.274 -0.025,-0.562 -0.178,-0.791 -0.089,-0.133 -0.209,-0.241 -0.307,-0.366 -0.225,-0.289 -0.25,-0.611 -0.377,-0.932 -0.127,-0.321 -0.282,-0.65 -0.545,-0.885 -0.212,-0.192 -0.436,-0.225 -0.713,-0.245 -0.06,-0.004 -0.124,-0.007 -0.176,0.022 l -0.035,0.034 0.006,0.066 c 0.127,0.357 0.352,0.67 0.502,1.018 l 0.074,0.18"
             id="path1186" />
          <path
             d="m 172.213,107.506 c -0.352,0.212 -0.66,0.493 -1.016,0.699 -0.356,0.206 -0.79,0.333 -1.18,0.2 l -0.104,-1.872 c -0.017,-0.625 0.038,-1.266 0.294,-1.837 0.234,-0.522 0.632,-0.977 0.745,-1.537 0.03,-0.15 0.039,-0.305 0.098,-0.446 0.048,-0.112 0.175,-0.277 0.315,-0.267 0.213,0.017 0.291,0.258 0.29,0.43 l -0.011,1.19 c -0.003,0.364 -0.032,0.734 0.037,1.092 0.117,0.602 0.485,1.126 0.939,1.526 0.105,0.093 0.59,0.35 0.453,0.528 -0.045,0.058 -0.362,0.07 -0.446,0.098 -0.145,0.049 -0.284,0.117 -0.415,0.196"
             id="path1188" />
        </g>
        <path
           d="m 164.511,89.928 c -0.037,0.291 0.008,0.599 0.166,0.848 a 1.78,1.78 0 0 0 1.045,0.792 c 0.456,0.135 0.933,0.192 1.408,0.203 0.633,0.015 1.266,-0.051 1.897,-0.117 l -0.405,-0.974 c -0.086,-0.207 -0.175,-0.419 -0.329,-0.581 -0.098,-0.102 -0.216,-0.18 -0.337,-0.255 -0.299,-0.185 -0.613,-0.352 -0.948,-0.461 -0.455,-0.15 -0.937,-0.194 -1.415,-0.229 -0.154,-0.011 -0.309,-0.022 -0.458,0.011 -0.352,0.076 -0.58,0.422 -0.624,0.762"
           class="K"
           id="path1192" />
        <path
           d="m 167.956,97.199 c 0.142,0.09 0.269,0.197 0.402,0.292 0.126,0.089 0.189,0.192 0.157,0.357 -0.027,0.141 -0.105,0.267 -0.138,0.408 -0.027,0.12 -0.02,0.245 -0.011,0.368 0.006,0.109 0.014,0.22 0.055,0.321 0.022,0.056 0.054,0.108 0.065,0.167 l 0.001,0.131 c -0.015,0.18 -0.048,0.388 -0.03,0.567 0.019,0.202 0.125,0.386 0.168,0.581 0.086,0.388 -0.065,0.819 0.1,1.182 0.145,0.317 0.498,0.49 0.843,0.541 0.472,0.069 0.948,-0.042 1.407,-0.171 l 1.829,-0.592 c 1.044,-0.373 2.08,-0.779 3.059,-1.299 0.478,-0.253 0.976,-0.574 1.154,-1.086 0.094,-0.272 0.109,-0.536 0.365,-0.693 0.295,-0.182 0.541,-0.416 0.787,-0.66 l 0.748,-0.809 c 0.182,-0.232 0.345,-0.482 0.485,-0.783 1.118,-2.388 1.693,-5.169 0.211,-7.556 -0.518,-0.832 -1.246,-1.531 -2.093,-2.024 -1.113,-0.649 -2.477,-0.651 -3.718,-0.492 a 6.39,6.39 0 0 0 -3.366,1.516 c -1.406,1.231 -1.752,3.003 -2.156,4.748 -0.09,0.39 -0.168,0.793 -0.091,1.186 0.094,0.469 0.289,0.895 0.446,1.346 l 0.031,0.164 c -0.008,0.082 -0.063,0.15 -0.116,0.213 -0.301,0.362 -0.574,0.748 -0.816,1.152 -0.116,0.193 -0.225,0.432 -0.124,0.632 0.069,0.136 0.216,0.21 0.345,0.292"
           class="C"
           id="path1194" />
        <path
           d="m 172.312,93.975 c -0.16,-0.131 -0.333,-0.284 -0.516,-0.381 -0.183,-0.097 -0.376,-0.17 -0.561,-0.258 -0.159,-0.074 -0.322,-0.15 -0.496,-0.161 -0.246,-0.015 -0.472,0.1 -0.698,0.182 -0.083,0.031 -0.549,0.127 -0.328,0.309 l 0.065,0.03 c 0.213,0.06 0.432,0.007 0.64,-0.049 0.1,-0.027 0.215,-0.076 0.319,-0.077 0.077,-10e-4 0.138,0.043 0.208,0.071 0.43,0.172 0.905,0.308 1.368,0.334 m -4.183,-0.64 0.146,0.096 c 0.157,0.081 0.328,0.133 0.498,0.177 0.055,0.014 0.151,0.057 0.173,-0.018 l -0.078,-0.164 c -0.189,-0.253 -0.473,-0.442 -0.774,-0.533 -0.216,-0.066 -0.067,0.324 -0.008,0.398 l 0.043,0.044"
           class="D"
           id="path1196" />
        <path
           d="m 172.575,97.492 c -0.024,0.488 -0.438,0.865 -0.925,0.841 -0.487,-0.024 -0.865,-0.438 -0.842,-0.926 0.023,-0.488 0.439,-0.864 0.926,-0.84 0.487,0.024 0.865,0.437 0.841,0.925"
           class="R"
           id="path1198" />
        <path
           d="m 173.953,93.333 c 0.215,0.706 0.477,1.398 0.767,2.077 0.09,0.211 0.173,0.558 0.339,0.721 0.166,0.163 0.366,-0.024 0.513,-0.14 0.373,-0.295 0.647,-0.693 0.993,-1.018 0.433,-0.406 0.936,-0.673 1.553,-0.621 1.28,0.109 0.68,2.19 0.437,2.943 l 0.132,-0.079 c 0.465,-0.603 0.885,-1.162 1.221,-1.852 0.184,-0.378 0.364,-0.761 0.47,-1.168 0.126,-0.484 0.143,-0.989 0.154,-1.489 0.014,-0.626 0.018,-1.259 -0.129,-1.866 -0.161,-0.658 -0.494,-1.258 -0.824,-1.85 -0.037,0.114 -0.076,0.23 -0.149,0.326 -0.073,0.096 -0.185,0.168 -0.303,0.154 -0.026,-0.127 -0.199,-0.248 -0.289,-0.335 -0.4,-0.386 -0.866,-0.701 -1.369,-0.936 -0.479,-0.222 -1.008,-0.378 -1.532,-0.307 -0.252,0.034 -0.494,0.119 -0.731,0.213 -0.532,0.21 -1.054,0.472 -1.467,0.868 -0.282,0.27 -0.371,0.559 -0.364,0.946 a 11.64,11.64 0 0 0 0.295,2.351 l 0.283,1.061"
           class="D"
           id="path1200" />
        <path
           d="m 179.839,87.552 c -0.762,-0.899 -1.643,-1.617 -2.759,-1.962 -1.409,-0.437 -2.832,-0.403 -4.255,0.019 -1.261,0.375 -2.403,1.108 -3.206,2.158 -0.267,0.349 -0.927,1.144 -0.494,1.579 0.138,0.137 0.335,0.193 0.524,0.235 0.951,0.21 2.037,0.145 2.938,0.545 0.946,0.42 1.857,1.007 2.757,1.524 l 1.744,1.107 c 0.541,0.414 1.026,0.897 1.51,1.378 l 0.74,0.742 c 0.235,0.256 0.353,0.554 0.567,0.814 1.117,-1.328 1.527,-3.064 1.349,-4.763 -0.129,-1.236 -0.581,-2.381 -1.388,-3.343 l -0.029,-0.034"
           class="K"
           id="path1202" />
        <path
           d="m 165.115,89.143 c -0.144,0.056 -0.274,0.14 -0.354,0.265 0.321,-0.088 0.66,-0.072 0.992,-0.044 1.187,0.1 1.989,1.009 2.789,1.788 0.275,0.267 0.544,0.545 0.859,0.764 0.638,0.441 1.424,0.613 2.198,0.683 0.663,0.06 1.334,0.053 1.996,-0.022 0.868,-0.099 1.719,-0.312 2.567,-0.525 L 175,91.34 l -2.17,-1.245 -0.887,-0.414 c -0.552,-0.241 -1.108,-0.493 -1.701,-0.607 -0.109,-0.022 -0.207,-0.076 -0.315,-0.085 -0.144,-0.011 -0.307,0.023 -0.451,0.032 l -0.931,0.041 a 25.55,25.55 0 0 1 -1.836,-0.021 c -0.375,-0.018 -0.753,-0.044 -1.129,-0.002 -0.143,0.016 -0.312,0.045 -0.465,0.104 m 10.521,26.012 c 0.01,0.07 -0.547,7.419 -0.547,7.419 l 2.529,1.896 3.529,-0.998 0.446,-6.77 -5.956,-1.547 m 9.869,-6.835 -0.395,0.383 c -1.224,1.278 -2.248,2.915 -2.361,4.72 -0.074,1.186 0.248,2.358 0.595,3.494 0.494,1.619 1.049,3.235 1.909,4.693 l 0.121,0.137 c 0.061,0.031 0.134,0.021 0.201,0.01 l 2.203,-0.412 c 1.602,-0.348 3.307,-0.881 4.266,-2.21 l -1.156,-3.176 c -0.858,-2.606 -1.555,-5.35 -3.239,-7.515 -0.275,-0.353 -0.724,-0.815 -1.209,-0.679 -0.348,0.098 -0.659,0.312 -0.936,0.555"
           class="S"
           id="path1204" />
        <path
           d="m 165.728,105.617 c -0.135,-0.178 -0.379,-0.237 -0.6,-0.22 -0.059,0.005 -0.121,0.013 -0.175,-0.01 l -0.105,-0.085 -0.915,-0.986 c -0.253,-0.273 -0.518,-0.554 -0.863,-0.694 -0.489,-0.198 -1.096,-0.055 -1.444,0.342 -0.18,0.205 -0.293,0.467 -0.496,0.65 -0.23,0.208 -0.55,0.29 -0.8,0.475 a 1.18,1.18 0 0 0 -0.474,0.914 c -0.002,0.069 0.003,0.142 -0.02,0.208 -0.024,0.072 -0.077,0.13 -0.124,0.19 -0.189,0.235 -0.471,0.679 -0.268,0.978 -0.236,-0.023 -0.427,0.204 -0.486,0.434 -0.119,0.452 0.097,0.92 0.335,1.323 0.207,0.352 0.559,0.638 0.359,1.078 a 19.4,19.4 0 0 1 -1.188,2.217 l -0.798,1.188 c -0.792,1.092 -1.711,2.133 -2.148,3.409 -0.156,0.455 -0.246,0.931 -0.286,1.41 -0.089,1.08 0.083,2.182 0.498,3.184 0.058,0.143 0.125,0.287 0.232,0.398 0.239,0.251 0.623,0.288 0.97,0.269 1.529,-0.085 3.037,-1.071 3.503,-2.531 0.115,-0.362 0.167,-0.743 0.205,-1.122 0.215,-2.14 0.527,-4.467 1.44,-6.442 0.245,-0.531 0.45,-1.086 0.773,-1.578 0.326,-0.498 0.795,-0.895 1.254,-1.27 0.265,-0.216 0.507,-0.527 0.697,-0.811 0.294,-0.439 0.506,-0.929 0.717,-1.414 0.131,-0.303 0.264,-0.611 0.31,-0.938 0.027,-0.195 0.018,-0.409 -0.101,-0.566"
           class="G"
           id="path1206" />
        <path
           d="m 164.538,106.628 v -4.801 l -2.007,1.158 v 4.802 c 0,0.223 0.078,0.378 0.2,0.438 l -0.001,0.001 1.256,0.72 0.251,-1.012 -0.137,-0.356 c 0.249,-0.203 0.437,-0.6 0.437,-0.95"
           class="O"
           id="path1208" />
        <path
           d="m 165.277,108.373 -0.943,0.545 c -0.295,0.169 -0.533,-0.011 -0.533,-0.402 v -4.801 l 2.007,-1.16 v 4.802 c 0,0.392 -0.238,0.847 -0.532,1.017"
           class="P"
           id="path1210" />
        <path
           d="m 161.025,109.319 c 0.533,0.109 1.017,0.427 1.56,0.464 l 0.168,-0.016 c 0.168,-0.066 0.189,-0.291 0.182,-0.472 0.303,-0.064 0.655,-0.166 0.76,-0.458 0.044,-0.119 0.035,-0.251 0.012,-0.376 -0.042,-0.237 -0.136,-0.465 -0.27,-0.665 0.246,0.067 0.505,-0.131 0.587,-0.373 0.082,-0.242 0.03,-0.507 -0.046,-0.751 a 4.06,4.06 0 0 0 -0.496,-1.04 c 0.192,-0.015 0.418,0.101 0.56,-0.029 l 0.081,-0.135 c 0.126,-0.353 -0.014,-0.746 -0.202,-1.071 -0.17,-0.293 -0.385,-0.568 -0.662,-0.762 -0.277,-0.194 -0.625,-0.303 -0.961,-0.251 a 1.11,1.11 0 0 0 -0.763,0.507 c -0.13,0.211 -0.232,0.546 -0.18,0.793 a 1.16,1.16 0 0 0 -0.813,0.426 c -0.197,0.246 -0.286,0.574 -0.238,0.886 -0.285,0.149 -0.512,0.398 -0.644,0.69 a 1.34,1.34 0 0 0 -0.12,0.461 c -0.003,0.059 -0.023,0.511 0.04,0.524 -0.141,-0.028 -0.288,0.054 -0.368,0.173 a 0.75,0.75 0 0 0 -0.109,0.412 c -0.002,0.145 0.018,0.293 0.078,0.426 0.298,0.658 1.269,0.519 1.845,0.637"
           class="C"
           id="path1212" />
        <g
           clip-path="url(#L)"
           transform="matrix(0.063477,0,0,-0.063477,-213.29589,308.68021)"
           id="g1216">
          <path
             d="m 5971.83,3242.61 -44.13,74.73 18.75,10.75 v -0.01 c 5.56,3.13 13.22,2.63 21.68,-2.25 17.01,-9.81 30.79,-33.58 30.79,-53.09 0,-9.78 -3.49,-16.63 -9.1,-19.79 l 0.01,-0.01 -18,-10.33"
             fill="url(#M)"
             id="path1214"
             style="fill:url(#M)" />
        </g>
        <path
           d="m 166.254,101.649 c 0,-1.238 -0.875,-2.747 -1.954,-3.37 -1.079,-0.623 -1.953,-0.124 -1.953,1.114 0,1.238 0.875,2.747 1.953,3.37 1.078,0.623 1.954,0.124 1.954,-1.114"
           class="B"
           id="path1218" />
        <g
           clip-path="url(#N)"
           transform="matrix(0.063477,0,0,-0.063477,-213.29589,308.68021)"
           class="E"
           id="g1222">
          <path
             d="m 5938.99,3223.62 -43.38,75.15 32.31,18.66 0.01,-0.02 c 5.57,3.14 13.22,2.65 21.69,-2.24 16.99,-9.82 30.77,-33.58 30.77,-53.09 0,-9.79 -3.48,-16.63 -9.08,-19.79 v -0.01 l -32.32,-18.66"
             id="path1220" />
        </g>
        <path
           d="m 164.17,102.855 c 0,-1.238 -0.875,-2.747 -1.953,-3.37 -1.078,-0.623 -1.954,-0.124 -1.954,1.114 0,1.238 0.875,2.747 1.954,3.37 1.079,0.623 1.953,0.124 1.953,-1.114"
           class="B"
           id="path1224" />
        <g
           clip-path="url(#O)"
           transform="matrix(0.063477,0,0,-0.063477,-213.29589,308.68021)"
           id="g1228">
          <path
             d="m 5946.5,3242.52 c 0,19.5 -13.78,43.27 -30.77,53.09 -8.81,5.07 -16.73,5.39 -22.33,1.82 l -0.02,0.02 -86.29,-23 -94.17,-3.01 114.42,-188.27 35.43,60.98 76.22,79.47 -0.06,0.11 c 4.7,3.49 7.57,9.91 7.57,18.79"
             fill="url(#P)"
             id="path1226"
             style="fill:url(#P)" />
        </g>
        <path
           d="m 157.079,110.748 c 0,-3.312 -2.34,-7.349 -5.226,-9.015 -2.886,-1.666 -5.226,-0.332 -5.226,2.98 0,3.312 2.34,7.348 5.226,9.014 2.886,1.666 5.226,0.332 5.226,-2.98"
           class="B"
           id="path1230" />
        <path
           d="m 156.656,110.503 c 0,-3.043 -2.151,-6.752 -4.803,-8.283 -2.652,-1.531 -4.802,-0.305 -4.802,2.738 0,3.043 2.149,6.751 4.802,8.282 2.653,1.531 4.803,0.306 4.803,-2.738"
           class="Q"
           id="path1232" />
        <g
           clip-path="url(#Q)"
           transform="matrix(0.063477,0,0,-0.063477,-213.29589,308.68021)"
           class="E"
           id="g1236">
          <path
             d="m 5825.04,3148.29 -52.92,-30.04 -47.15,81.65 54.75,31.08 c 21.81,-22.26 38.72,-52.92 45.32,-82.69"
             id="path1234" />
        </g>
        <path
           d="m 153.618,109.44 c 0,-1.345 -0.95,-2.985 -2.122,-3.661 -1.172,-0.676 -2.123,-0.135 -2.123,1.21 0,1.345 0.95,2.984 2.123,3.661 1.173,0.677 2.122,0.135 2.122,-1.21"
           class="B"
           id="path1238" />
        <g
           clip-path="url(#R)"
           transform="matrix(0.063477,0,0,-0.063477,-213.29589,308.68021)"
           class="E"
           id="g1242">
          <path
             d="m 5767.75,3141.53 c 0,15.82 -11.18,35.1 -24.96,43.06 -13.79,7.96 -24.96,1.59 -24.96,-14.23 0,-15.82 11.17,-35.1 24.96,-43.06 13.78,-7.95 24.96,-1.59 24.96,14.23"
             id="path1240" />
        </g>
        <path
           d="m 164.816,105.865 c -0.043,0.085 -0.058,0.182 -0.059,0.277 -0.001,0.14 0.034,0.296 0.147,0.38 0.113,0.084 0.262,0.072 0.399,0.059 l 0.427,-0.042 c 0.047,0.1 -0.017,0.245 0.071,0.311 l 0.154,-0.006 0.107,-0.123 c 0.156,-0.244 0.302,-0.512 0.301,-0.801 -0.002,-0.355 -0.28,-0.706 -0.647,-0.575 -0.275,0.097 -0.757,0.246 -0.899,0.52"
           class="C"
           id="path1244" />
        <path
           d="m 125.561,119.253 c 0.573,1.019 0.901,2.19 1.086,3.352 a 16.34,16.34 0 0 1 -0.107,5.734 c -0.646,3.264 -2.283,6.304 -2.618,9.614 -1.184,-1.552 -2.373,-3.113 -3.302,-4.831 -0.929,-1.718 -1.592,-3.615 -1.644,-5.567 -0.018,-0.667 0.041,-1.351 0.321,-1.956 0.176,-0.38 0.437,-0.71 0.64,-1.075 0.232,-0.421 0.227,-0.754 0.3,-1.212 0.168,-1.054 0.438,-2.095 0.699,-3.128 0.222,-0.877 -0.193,-1.896 0.402,-2.672 0.375,-0.488 1.063,-0.661 1.664,-0.538 0.601,0.123 1.125,0.498 1.558,0.936 0.397,0.401 0.727,0.855 1.001,1.344"
           fill="#c68861"
           id="path1246" />
        <path
           d="m 135.973,179.811 -22.869,-13.203 -4.664,-34.45 22.869,13.204 4.664,34.449"
           fill="#d8d8d8"
           id="path1248" />
        <path
           d="m 106.138,133.42 a 2.73,2.73 0 0 1 0.499,-0.623 c 0.096,-0.09 0.477,-0.467 0.616,-0.437 -0.778,-0.166 -1.582,0.025 -2.375,0.092 -1.193,0.1 -2.328,-0.146 -3.428,-0.588 -0.342,-0.137 -0.675,-0.283 -0.966,-0.512 -0.328,-0.261 -0.552,-0.618 -0.847,-0.917 -1.487,-1.505 -8.317,-10.52 -8.408,-11.008 -0.091,-0.488 0.118,-1.081 0.171,-1.577 0.128,-1.192 0.187,-2.414 -0.095,-3.59 -0.101,-0.423 -0.244,-0.835 -0.388,-1.245 l -0.678,-1.94 c -0.051,-0.146 -0.105,-0.298 -0.215,-0.408 -0.11,-0.11 -0.29,-0.167 -0.424,-0.088 -0.04,-0.265 -0.114,-0.577 -0.364,-0.675 -0.281,-0.11 -0.592,0.155 -0.654,0.449 -0.168,-0.032 -0.342,0.071 -0.436,0.215 -0.094,0.144 -0.123,0.321 -0.132,0.493 -0.068,1.19 0.658,2.349 0.456,3.525 -0.508,-0.646 -0.879,-1.398 -1.084,-2.194 -0.043,-0.168 -0.079,-0.341 -0.169,-0.488 -0.133,-0.218 -0.55,-0.415 -0.691,-0.098 -0.125,0.283 0.062,0.783 0.133,1.063 0.198,0.776 0.515,1.515 0.835,2.247 a 1.77,1.77 0 0 1 0.129,0.362 c 0.029,0.142 0.023,0.288 0.016,0.432 l -0.043,0.95 c -0.027,0.635 -0.053,1.275 0.039,1.907 0.065,0.451 0.204,1.339 0.701,1.523 0.648,0.241 3.962,7.884 5.039,9.819 0.556,0.999 1.119,1.996 1.752,2.95 0.289,0.436 0.565,0.914 0.892,1.317 1.266,1.557 3.209,2.749 5.072,3.446 1.703,0.636 3.522,0.932 5.338,0.983 -0.15,-0.004 -0.399,-0.576 -0.449,-0.696 -0.114,-0.275 -0.091,-0.469 -0.095,-0.75 -0.012,-0.734 -0.127,-1.443 -0.076,-2.183 0.037,-0.546 0.046,-1.273 0.324,-1.754"
           class="G"
           id="path1250" />
        <path
           d="m 89.3,114.243 c -0.298,0.281 -0.38,0.731 -0.325,1.137 0.055,0.406 0.223,0.786 0.359,1.173 0.136,0.387 0.239,0.802 0.157,1.204 -0.073,0.355 -0.284,0.664 -0.43,0.995 -0.146,0.331 -0.221,0.736 -0.028,1.044 0.162,0.257 0.488,0.383 0.79,0.351 0.302,-0.032 0.578,-0.201 0.788,-0.42 0.557,-0.585 0.66,-1.508 0.389,-2.27 -0.271,-0.762 -0.87,-1.417 -0.913,-2.222 l -0.013,-0.522 c -0.023,-0.184 -0.107,-0.473 -0.262,-0.594 -0.155,-0.121 -0.377,-0.002 -0.512,0.125"
           class="C"
           id="path1252" />
        <path
           d="m 113.485,132.102 c 0.119,-0.054 0.232,-0.081 0.317,-0.059 -0.511,-0.132 -1.045,-0.144 -1.573,-0.149 -0.657,-0.006 -1.314,0 -1.971,0.016 l -2.661,0.121 -1.327,0.103 c -0.326,0.029 -0.779,-0.022 -1.029,0.205 -0.487,0.444 -0.748,1.286 -0.879,1.909 a 5.43,5.43 0 0 0 -0.02,2.099 c 0.227,1.212 0.703,2.509 1.77,3.226 a 4.23,4.23 0 0 0 1.059,0.514 c 0.308,0.1 0.644,0.173 0.87,0.405 0.156,0.16 0.241,0.38 0.402,0.535 0.161,0.155 0.465,0.209 0.586,0.022 0.346,-0.534 0.457,-1.275 0.883,-1.746 0.437,-0.483 0.698,-1.042 0.964,-1.643 0.269,-0.61 0.442,-1.256 0.604,-1.902 0.094,-0.375 0.126,-0.762 0.225,-1.135 0.088,-0.331 0.252,-0.645 0.402,-0.953 0.185,-0.381 0.319,-0.741 0.635,-1.04 0.132,-0.124 0.458,-0.401 0.741,-0.529"
           fill="#aec4ba"
           id="path1254" />
        <path
           d="m 126.287,213.341 c -0.021,0.601 -0.293,1.011 -0.673,1.465 -0.227,0.272 -0.354,0.64 -0.548,0.937 -0.823,1.253 -1.867,2.429 -3.246,3.02 -0.717,0.307 -1.504,0.446 -2.182,0.832 -0.12,0.069 -0.375,0.338 -0.504,0.336 -0.14,-0.004 -0.314,-0.222 -0.236,-0.358 -0.809,1.402 -1.483,2.881 -2.011,4.411 a 4.12,4.12 0 0 0 -0.204,1.019 c -0.077,1.026 0.194,2.234 1.009,2.926 0.51,0.435 1.209,0.609 1.878,0.572 0.669,-0.037 1.315,-0.27 1.913,-0.573 1.796,-0.907 3.276,-2.536 3.743,-4.493 0.222,-0.935 0.229,-1.957 0.752,-2.763 0.234,-0.36 0.555,-0.652 0.831,-0.98 a 4.79,4.79 0 0 0 0.522,-5.238 c -0.247,-0.453 -0.585,-0.877 -1.044,-1.112"
           class="D"
           id="path1256" />
        <path
           d="m 117.799,221.381 -0.511,1.12 c -0.503,1.084 -1.101,2.893 0.018,3.817 1.083,0.894 2.977,0.484 4.061,-0.173 1.244,-0.756 2.146,-1.966 2.893,-3.188 0.38,-0.62 0.644,-1.263 0.984,-1.899 l 1.129,-2.298 0.307,-0.705 c 0.187,-0.441 0.367,-0.892 0.441,-1.366 0.136,-0.873 -0.262,-1.649 -0.691,-2.385 -0.04,-0.07 -0.084,-0.141 -0.151,-0.186 -0.079,-0.053 -0.178,-0.061 -0.272,-0.068 -1.221,-0.089 -2.446,-0.105 -3.668,-0.049 -0.338,0.015 -0.534,-0.149 -0.849,0.083 -1.021,0.746 -1.508,2.004 -1.968,3.183 l -1.723,4.116"
           class="T"
           id="path1258" />
        <path
           d="m 102.691,217.885 c 0.338,1.829 2.338,2.008 3.804,1.538 1.027,-0.33 1.976,-0.901 2.749,-1.654 l 2.215,-2.208 c 0.38,-0.312 0.666,-0.511 1.16,-0.654 0.57,-0.165 1.161,-0.241 1.741,-0.361 0.741,-0.153 1.497,-0.394 2.041,-0.919 0.74,-0.71 0.804,-1.702 0.745,-2.658 a 5.04,5.04 0 0 0 -1.131,-2.877 c 0.055,0.066 0.018,0.444 0.035,0.547 0.026,0.157 0.105,0.33 0.086,0.49 -0.039,0.309 -0.328,0.612 -0.484,0.868 -0.226,0.369 -0.519,0.695 -0.829,0.995 -2.099,2.027 -5.03,2.98 -7.924,3.35 l -1.824,0.282 c -0.275,0.069 -0.567,0.277 -0.858,0.213 -0.251,-0.055 -0.281,-0.278 -0.3,-0.508 -0.423,0.319 -0.719,0.866 -0.91,1.348 -0.274,0.689 -0.451,1.471 -0.315,2.208"
           class="D"
           id="path1260" />
        <path
           d="m 105.617,212.661 -1.12,0.905 c -0.791,0.651 -1.388,1.455 -1.612,2.467 -0.13,0.582 -0.11,1.261 0.307,1.688 0.289,0.295 0.715,0.411 1.124,0.46 1.951,0.235 3.904,-0.793 5.157,-2.305 0.295,-0.355 0.559,-0.738 0.892,-1.058 0.906,-0.87 2.199,-1.165 3.358,-1.654 a 10,10 0 0 0 1.348,-0.693 c 0.735,-0.452 1.306,-0.9 1.502,-1.791 a 3.87,3.87 0 0 0 -1.618,-3.967 3.33,3.33 0 0 1 -1.883,1.729 c -0.637,0.228 -1.346,0.248 -1.998,0.067 -0.235,-0.065 -1.631,-0.484 -1.414,-0.925 -0.435,0.885 -0.875,1.775 -1.464,2.565 -0.72,0.966 -1.64,1.751 -2.581,2.511"
           class="T"
           id="path1262" />
        <path
           d="m 116.83,188.751 -1.007,-9.746 c -0.51,-3.871 -0.773,-7.77 -1.019,-11.668 -0.462,0.136 -0.892,-0.268 -1.198,-0.642 -1.038,-1.266 -1.985,-2.606 -2.833,-4.006 -0.791,-1.306 -1.625,-2.775 -3.075,-3.252 -2.326,-0.765 -2.35,2.019 -2.507,3.478 -0.242,2.252 -0.321,4.521 -0.248,6.784 0.147,4.585 0.912,9.143 2.171,13.552 1.942,5.827 1.986,12.091 1.965,18.157 l -0.064,4.5 c -0.029,1.158 -0.488,2.726 0.57,3.516 1.844,1.377 4.658,1.244 6.365,-0.3 0.323,-0.293 0.615,-0.64 0.743,-1.058 0.09,-0.295 0.093,-0.607 0.096,-0.915 l 0.042,-18.401"
           class="D"
           id="path1264" />
        <path
           d="m 127.992,209.657 -0.034,-3.412 -0.619,-7.113 c -0.196,-1.739 -0.557,-3.437 -0.893,-5.153 -0.516,-2.637 -0.79,-5.161 -0.669,-7.84 0.126,-2.786 0.97,-5.526 1.177,-8.312 0.319,-4.287 0.045,-8.735 -0.978,-12.919 a 36.42,36.42 0 0 0 -1.377,-4.41 c -0.414,-1.077 -0.889,-2.151 -1.632,-3.034 -1.217,1.958 -1.966,4.247 -3.95,5.612 a 7.55,7.55 0 0 1 -5.359,1.252 c -0.604,-0.091 -1.476,-0.086 -2.017,-0.319 -0.574,-0.248 -1.053,-1.026 -1.27,-1.579 0.13,0.329 -0.121,1.155 -0.152,1.519 -0.048,0.552 -0.088,1.105 -0.109,1.659 -0.042,1.096 -0.021,2.198 0.136,3.285 0.133,0.927 0.306,2.164 0.875,2.937 0.081,0.11 0.168,0.218 0.257,0.322 0.5,0.582 1.106,1.095 1.547,1.735 0.795,1.153 1.095,2.564 1.391,3.934 a 237.5,237.5 0 0 0 3.129,12.761 c 1.052,3.829 2.081,7.556 2.432,11.541 0.102,1.155 0.164,2.314 0.187,3.474 0.042,2.174 -0.073,4.346 -0.117,6.519 -0.022,1.102 -0.039,2.21 0.017,3.312 0.049,0.974 0.475,1.329 1.468,1.532 1.854,0.379 3.75,-0.432 5.323,-1.482 0.289,-0.193 0.578,-0.401 0.774,-0.687 0.31,-0.458 0.339,-1.044 0.356,-1.596 l 0.108,-3.539"
           class="I"
           id="path1266" />
        <path
           d="m 109.433,132.919 a 2.88,2.88 0 0 0 -0.361,0.548 62.69,62.69 0 0 0 -3.139,7.215 c -0.197,0.547 -0.389,1.103 -0.472,1.68 -0.075,0.524 0.043,0.961 0.078,1.465 l 0.905,8.308 c 0.076,1.693 -0.126,3.381 -0.435,5.043 l -1.062,4.976 c -0.182,1.365 1.739,2.047 2.78,2.533 1.391,0.65 2.882,1.085 4.402,1.29 l 1.376,0.124 c 3.093,0.135 6.21,-0.671 8.892,-2.217 1.115,-0.644 2.154,-1.41 3.146,-2.231 0.058,-0.048 0.119,-0.1 0.143,-0.172 0.024,-0.072 0.01,-0.15 -0.006,-0.224 -0.169,-0.774 -0.505,-1.442 -0.736,-2.2 l -0.774,-2.714 -1.266,-5.5 c -0.126,-0.648 -0.244,-1.308 -0.173,-1.963 0.065,-0.592 0.354,-0.994 0.597,-1.515 0.209,-0.448 0.336,-0.908 0.584,-1.344 0.618,-1.095 1.445,-2.052 2.089,-3.13 l 1.478,-2.593 0.64,-1.191 c 0.146,-0.299 0.366,-0.549 0.319,-0.894 -0.049,-0.371 -0.295,-0.712 -0.533,-0.988 -0.637,-0.741 -1.446,-1.312 -2.255,-1.861 l -4.575,-2.9 c -0.265,-0.157 -0.501,-0.236 -0.794,-0.314 -0.265,-0.071 -0.281,-0.129 -0.462,-0.308 -0.429,-0.426 -1.103,-0.272 -1.652,-0.195 -1.614,0.226 -3.246,0.32 -4.876,0.281 -0.732,-0.017 -1.471,-0.062 -2.191,0.076 -0.695,0.133 -1.252,0.426 -1.666,0.917"
           fill="#9aaea5"
           id="path1268" />
        <g
           class="F"
           id="g1274">
          <path
             d="m 130.591,144.945 -1.015,-0.587 a 19.54,19.54 0 0 0 -0.055,-2.796 c -0.2,-2.064 -0.717,-3.658 -1.581,-4.86 -0.477,-0.669 -1.256,-1.49 -2.264,-1.621 -1.476,-0.187 -2.637,0.655 -3.354,1.401 -0.766,0.793 -1.36,1.76 -1.809,2.644 l -0.642,1.374 c -0.545,1.29 -1.008,2.677 -1.415,4.252 l -0.442,1.953 -1.014,-0.18 0.456,-2.029 c 0.421,-1.629 0.897,-3.065 1.463,-4.397 l 0.698,-1.492 c 0.483,-0.945 1.125,-1.974 1.96,-2.843 1.243,-1.298 2.74,-1.898 4.231,-1.705 1.374,0.179 2.382,1.208 2.975,2.043 0.974,1.353 1.554,3.107 1.768,5.363 0.096,1.077 0.117,2.223 0.041,3.479 m -13.247,-13.204 -1.139,0.11 c -0.421,-0.663 -1.077,-1.388 -1.947,-1.581 -1.449,-0.331 -2.684,0.4 -3.472,1.077 -1.304,1.125 -2.23,2.691 -2.816,3.768 a 29.9,29.9 0 0 0 -1.808,4.1 l -0.621,1.906 -1.001,-0.283 0.649,-1.974 c 0.573,-1.581 1.187,-2.968 1.871,-4.238 0.621,-1.153 1.615,-2.83 3.051,-4.066 1.367,-1.174 2.913,-1.629 4.377,-1.297 1.353,0.303 2.257,1.429 2.768,2.312 l 0.09,0.166"
             id="path1270" />
          <path
             d="m 118.162,189.774 -22.869,-13.204 6.896,-39.189 22.869,13.203 -6.896,39.189"
             id="path1272" />
        </g>
        <path
           d="m 112.885,132.887 c -0.262,0.481 -0.446,1.02 -0.422,1.568 0.025,0.595 0.29,1.151 0.56,1.682 0.082,0.164 0.17,0.331 0.31,0.449 0.109,0.092 0.244,0.149 0.379,0.196 0.884,0.305 1.867,0.228 2.755,-0.066 0.888,-0.294 1.693,-0.793 2.458,-1.331 0.716,-0.503 1.412,-1.049 1.968,-1.725 0.19,-0.231 0.371,-0.5 0.364,-0.799 -0.004,-0.158 -0.14,-0.227 -0.251,-0.312 a 3.77,3.77 0 0 1 -0.427,-0.378 c -0.701,-0.736 -0.95,-1.798 -0.985,-2.813 -0.035,-1.015 0.114,-2.031 0.077,-3.046 -1.286,2.034 -3.493,3.607 -5.899,3.615 -0.399,0.001 -0.835,-0.027 -1.152,0.213 -0.234,0.179 -0.333,0.498 -0.284,0.782 0.051,0.3 0.226,0.336 0.433,0.51 0.165,0.137 0.43,0.409 0.472,0.63 0.046,0.246 -0.22,0.582 -0.334,0.788 l -0.021,0.037"
           class="G"
           id="path1276" />
        <g
           class="F"
           id="g1282">
          <path
             d="m 120.396,132.16 a 1.86,1.86 0 0 1 0.031,0.597 c -0.024,0.22 -0.094,0.341 -0.222,0.524 -0.242,0.347 -0.528,0.661 -0.833,0.953 -0.623,0.597 -1.358,1.064 -2.104,1.499 l -0.71,0.395 -0.738,0.36 c -0.396,0.159 -0.83,0.211 -1.252,0.255 -0.208,0.022 -0.42,0.036 -0.619,0.104 l -0.044,0.026 c -0.052,0.069 0.138,0.114 0.173,0.128 a 2.38,2.38 0 0 1 0.239,0.116 2.79,2.79 0 0 1 0.426,0.281 3.33,3.33 0 0 1 0.684,0.769 c 0.287,0.434 0.535,0.912 0.587,1.429 0.388,-0.43 0.92,-0.698 1.422,-0.988 0.893,-0.515 1.645,-1.183 2.472,-1.78 0.325,-0.235 0.611,-0.517 0.892,-0.802 0.506,-0.514 1.021,-1.081 1.152,-1.789 0.049,-0.27 0.036,-0.561 -0.09,-0.806 -0.073,-0.142 -0.181,-0.262 -0.265,-0.398 -0.192,-0.312 -0.18,-0.635 -0.271,-0.969 -0.091,-0.334 -0.209,-0.677 -0.443,-0.94 -0.19,-0.215 -0.409,-0.271 -0.682,-0.322 -0.667,-0.124 -0.03,0.802 0.08,1.025 0.051,0.105 0.088,0.218 0.114,0.335"
             id="path1278" />
          <path
             d="m 113.059,137.138 c -0.374,0.171 -0.711,0.416 -1.088,0.581 -0.377,0.165 -0.822,0.244 -1.195,0.068 l 0.063,-1.103 -0.012,-0.965 c 0.043,-0.647 0.232,-1.284 0.554,-1.847 a 4.31,4.31 0 0 1 1.894,-1.748 9.47,9.47 0 0 0 -0.382,1.23 c -0.126,0.532 -0.205,1.096 -0.1,1.638 0.098,0.503 0.419,0.998 0.761,1.374 0.095,0.103 0.547,0.412 0.392,0.574 -0.051,0.053 -0.367,0.029 -0.454,0.048 -0.149,0.033 -0.294,0.086 -0.433,0.15"
             id="path1280" />
        </g>
        <path
           d="m 111.155,120.898 c -0.138,0.274 -0.262,0.571 -0.256,0.854 0.005,0.235 0.104,0.458 0.131,0.692 0.09,0.767 -0.57,1.406 -0.774,2.151 -0.111,0.403 -0.086,0.83 -0.05,1.246 a 30.51,30.51 0 0 0 0.686,4.35 c 0.092,0.395 0.207,0.814 0.513,1.079 0.213,0.185 0.494,0.271 0.771,0.321 0.64,0.114 1.298,0.056 1.941,-0.04 1.344,-0.202 2.663,-0.575 3.914,-1.108 0.274,-0.117 0.551,-0.246 0.761,-0.457 0.442,-0.445 0.493,-1.153 0.863,-1.66 1.033,0.09 1.946,-0.665 2.592,-1.474 0.449,-0.561 0.837,-1.177 1.068,-1.856 0.27,-0.796 0.315,-1.656 0.222,-2.492 -0.403,-3.622 -3.576,-5.909 -7.125,-5.622 -0.379,0.031 -0.75,0.091 -1.121,0.175 -0.289,0.066 -0.573,0.194 -0.853,0.015 -0.069,-0.044 -0.14,-0.105 -0.222,-0.097 -0.058,0.007 -0.105,0.047 -0.148,0.087 a 13.37,13.37 0 0 0 -1.935,2.199 c -0.283,0.403 -0.565,0.825 -0.787,1.265 l -0.192,0.371"
           class="C"
           id="path1284" />
        <path
           d="m 116.693,126.998 c -0.048,0.702 -0.656,1.231 -1.358,1.183 -0.702,-0.048 -1.231,-0.656 -1.183,-1.358 0.048,-0.702 0.656,-1.231 1.358,-1.183 0.702,0.048 1.231,0.656 1.183,1.358"
           class="R"
           id="path1286" />
        <path
           d="m 116.828,123.604 -0.131,-0.218 a 1.06,1.06 0 0 0 -0.172,-0.193 c -0.141,-0.116 -0.329,-0.198 -0.494,-0.273 a 3.68,3.68 0 0 0 -1.214,-0.316 c -0.551,-0.044 -1.103,0.039 -1.649,0.123 -0.117,0.018 -0.136,0.208 -0.072,0.306 0.064,0.098 0.182,0.15 0.299,0.164 0.117,0.014 0.234,-0.008 0.35,-0.024 a 6.1,6.1 0 0 1 1.714,0.009 c 0.229,0.032 0.491,0.039 0.705,0.131 l 0.665,0.291 m -6.211,-1.529 c -0.017,0.093 0.063,0.181 0.152,0.212 0.089,0.031 0.187,0.026 0.281,0.035 0.288,0.027 0.541,0.194 0.781,0.357 -0.002,-0.117 -0.08,-0.218 -0.154,-0.309 -0.153,-0.189 -0.317,-0.388 -0.547,-0.484 -0.196,-0.082 -0.463,-0.084 -0.514,0.19 m 4.481,-3.945 c 0.482,0.049 0.943,0.17 1.41,0.446 0.717,0.421 1.268,1.107 1.576,1.876 0.348,0.872 0.362,1.775 0.258,2.693 -0.081,0.706 0.016,1.564 0.411,2.168 0.318,0.487 0.573,0.983 1.089,1.305 a 1.84,1.84 0 0 1 0.931,-1.502 c 0.369,-0.203 1.222,-0.371 1.46,0.121 0.145,0.3 0.128,0.76 0.067,1.079 -0.071,0.375 -0.288,0.766 -0.455,1.106 l 0.246,-0.129 c 0.11,-0.064 0.208,-0.154 0.307,-0.234 a 4.21,4.21 0 0 0 1,-1.19 c 0.381,-0.669 0.629,-1.408 0.761,-2.165 0.067,-0.386 0.104,-0.777 0.112,-1.169 0.024,-1.127 -0.181,-2.267 -0.682,-3.283 -0.465,-0.942 -1.413,-1.787 -2.325,-2.302 a 10.24,10.24 0 0 0 -1.172,-0.555 c -1.031,-0.418 -2.163,-0.552 -3.269,-0.503 -1.247,0.055 -2.479,0.59 -3.341,1.492 -0.453,0.474 -0.097,0.742 0.431,0.726 l 1.184,0.021"
           fill="#c68861"
           id="path1288" />
        <path
           d="m 119.864,151.627 -0.583,1.706 c -0.27,1.047 -0.286,2.147 -0.149,3.22 0.119,0.92 0.348,1.825 0.684,2.69 0.053,0.136 0.109,0.274 0.204,0.385 0.342,0.403 0.992,0.293 1.471,0.068 1.631,-0.766 2.696,-2.361 3.569,-3.937 1.352,-2.444 2.45,-5.043 3.067,-7.766 0.143,-0.633 0.26,-1.275 0.283,-1.924 0.013,-0.323 -0.006,-0.641 -0.041,-0.961 -0.021,-0.2 0.048,-0.488 -0.043,-0.667 -0.042,-0.082 -0.122,-0.138 -0.201,-0.185 -0.578,-0.345 -1.276,-0.424 -1.949,-0.428 -0.834,-0.006 -1.675,0.092 -2.459,0.376 -0.784,0.284 -1.509,0.76 -2.013,1.425 -0.399,0.527 -0.402,1.091 -0.559,1.706 l -0.771,2.779 -0.512,1.515"
           class="C"
           id="path1290" />
        <path
           d="m 106.168,139.868 v -4.64 l -1.939,1.12 v 4.639 c 0,0.216 0.075,0.366 0.192,0.424 l 1.215,0.696 0.241,-0.978 -0.132,-0.343 c 0.241,-0.197 0.423,-0.581 0.423,-0.918"
           class="O"
           id="path1292" />
        <path
           d="m 106.881,141.554 -0.91,0.526 c -0.284,0.164 -0.515,-0.01 -0.515,-0.388 v -4.64 l 1.94,-1.12 v 4.64 c 0,0.379 -0.23,0.819 -0.515,0.983"
           class="P"
           id="path1294" />
        <g
           clip-path="url(#S)"
           transform="matrix(0.063477,0,0,-0.063477,-213.29589,308.68021)"
           id="g1298">
          <path
             d="m 5051.61,2716.95 -42.63,72.21 18.11,10.38 0.01,-0.01 c 5.37,3.03 12.77,2.55 20.96,-2.17 16.41,-9.48 29.73,-32.45 29.73,-51.29 0,-9.46 -3.37,-16.07 -8.79,-19.13 l 0.01,-0.01 -17.4,-9.98"
             fill="url(#T)"
             id="path1296"
             style="fill:url(#T)" />
        </g>
        <path
           d="m 107.826,135.057 c 0,-1.197 -0.845,-2.654 -1.887,-3.256 -1.042,-0.602 -1.888,-0.121 -1.888,1.076 0,1.197 0.845,2.654 1.888,3.256 1.043,0.602 1.887,0.12 1.887,-1.076"
           class="B"
           id="path1300" />
        <g
           clip-path="url(#U)"
           transform="matrix(0.063477,0,0,-0.063477,-213.29589,308.68021)"
           class="E"
           id="g1304">
          <path
             d="m 5019.89,2698.6 -41.92,72.61 31.23,18.03 0.01,-0.01 c 5.37,3.03 12.77,2.55 20.95,-2.17 16.42,-9.48 29.73,-32.45 29.73,-51.29 0,-9.46 -3.36,-16.07 -8.78,-19.13 l 0.01,-0.01 -31.23,-18.03"
             id="path1302" />
        </g>
        <path
           d="m 105.812,136.222 c 0,-1.196 -0.845,-2.653 -1.887,-3.255 -1.042,-0.602 -1.887,-0.121 -1.887,1.076 0,1.197 0.845,2.654 1.887,3.256 1.042,0.602 1.887,0.12 1.887,-1.077"
           class="B"
           id="path1306" />
        <g
           clip-path="url(#V)"
           transform="matrix(0.063477,0,0,-0.063477,-213.29589,308.68021)"
           id="g1310">
          <path
             d="m 5027.15,2716.87 c 0,18.84 -13.31,41.8 -29.73,51.28 -8.51,4.92 -16.16,5.21 -21.58,1.77 l -0.02,0.02 -83.37,-22.23 -90.99,-2.91 110.56,-181.9 34.24,58.93 73.63,76.77 -0.07,0.11 c 4.56,3.37 7.33,9.58 7.33,18.16"
             fill="url(#W)"
             id="path1308"
             style="fill:url(#W)" />
        </g>
        <path
           d="m 98.962,143.848 c 0,-3.201 -2.261,-7.099 -5.05,-8.71 -2.789,-1.611 -5.05,-0.321 -5.05,2.88 0,3.201 2.26,7.099 5.05,8.709 2.79,1.61 5.05,0.321 5.05,-2.879"
           class="B"
           id="path1312" />
        <path
           d="m 98.552,143.611 c 0,-2.94 -2.077,-6.524 -4.64,-8.003 -2.563,-1.479 -4.64,-0.295 -4.64,2.645 0,2.94 2.078,6.524 4.64,8.003 2.562,1.479 4.64,0.295 4.64,-2.646"
           class="Q"
           id="path1314" />
        <g
           clip-path="url(#X)"
           transform="matrix(0.063477,0,0,-0.063477,-213.29589,308.68021)"
           class="E"
           id="g1318">
          <path
             d="m 4909.79,2625.82 -51.13,-29.02 -45.55,78.88 52.89,30.02 c 21.08,-21.49 37.42,-51.12 43.79,-79.88"
             id="path1316" />
        </g>
        <path
           d="m 95.617,142.584 c 0,-1.3 -0.918,-2.884 -2.051,-3.538 -1.133,-0.654 -2.051,-0.131 -2.051,1.169 0,1.3 0.919,2.884 2.051,3.538 1.132,0.654 2.051,0.131 2.051,-1.169"
           class="B"
           id="path1320" />
        <g
           clip-path="url(#Y)"
           transform="matrix(0.063477,0,0,-0.063477,-213.29589,308.68021)"
           class="E"
           id="g1324">
          <path
             d="m 4854.44,2619.3 c 0,15.28 -10.8,33.9 -24.12,41.6 -13.32,7.68 -24.12,1.53 -24.12,-13.75 0,-15.29 10.8,-33.92 24.12,-41.6 13.32,-7.7 24.12,-1.54 24.12,13.75"
             id="path1322" />
        </g>
        <path
           d="m 121.982,154.317 c -0.344,-1.118 -1.125,-2.058 -2.014,-2.819 -0.889,-0.761 -1.896,-1.372 -2.848,-2.052 -2.226,-1.591 -4.151,-3.557 -6.033,-5.547 -0.376,-0.524 -0.684,-1.004 -0.919,-1.635 -0.093,-0.25 -0.201,-0.498 -0.347,-0.722 -0.133,-0.204 -0.213,-0.441 -0.317,-0.665 -0.225,-0.485 -0.489,-0.953 -0.79,-1.396 -0.149,-0.219 -0.308,-0.435 -0.509,-0.609 -0.166,-0.144 -0.398,-0.295 -0.624,-0.315 -0.252,-0.022 -0.218,0.491 -0.313,0.668 a 1.15,1.15 0 0 1 -0.679,0.549 c -0.216,0.065 -0.449,0.065 -0.673,0.037 a 2.23,2.23 0 0 1 -1.073,-0.432 c -0.152,-0.117 -0.287,-0.255 -0.392,-0.415 -0.067,-0.103 -0.143,-0.427 -0.291,-0.243 -0.218,0.273 -0.319,0.633 -0.287,0.98 0.016,0.176 0.095,0.335 0.097,0.511 0.002,0.229 -0.072,0.451 -0.051,0.681 0.027,0.304 0.203,0.591 0.175,0.896 -0.018,0.203 -0.125,0.387 -0.181,0.584 a 1.19,1.19 0 0 0 0.055,0.799 c 0.06,0.136 0.145,0.261 0.189,0.402 0.077,0.249 0.018,0.523 0.09,0.772 0.072,0.254 0.275,0.454 0.505,0.582 0.23,0.128 0.489,0.194 0.744,0.258 l 1.156,0.293 c 0.421,0.107 0.976,0.196 1.317,0.477 1.151,0.948 2.066,2.246 2.898,3.482 1.289,1.914 2.251,4.049 3.702,5.844 1.073,1.328 2.389,2.438 3.732,3.493 0.748,0.587 1.605,1.191 2.554,1.113 0.978,-1.688 1.703,-3.708 1.129,-5.573"
           class="C"
           id="path1326" />
        <path
           d="m 123.703,138.373 c -0.968,1.008 -1.563,2.318 -1.986,3.65 -0.321,1.014 -0.552,2.055 -0.689,3.11 l -0.089,0.818 c -0.016,0.196 -0.098,0.507 -0.021,0.696 0.129,0.317 0.756,0.572 1.045,0.707 0.482,0.223 1.009,0.335 1.537,0.397 1.668,0.198 3.388,-0.082 4.91,-0.793 0.202,-0.095 0.406,-0.201 0.555,-0.367 0.282,-0.312 0.23,-0.914 0.27,-1.31 0.171,-1.657 0.342,-3.333 0.119,-4.984 -0.096,-0.712 -0.268,-1.423 -0.607,-2.056 -0.249,-0.465 -0.593,-0.892 -1.024,-1.201 -0.384,-0.277 -0.752,-0.244 -1.209,-0.178 -1.075,0.155 -2.067,0.736 -2.814,1.513"
           fill="#aec4ba"
           id="path1328" />
        <g
           class="N"
           id="g1338">
          <use
             xlink:href="#Z"
             y="-8.0229998"
             id="use1330"
             x="0"
             width="100%"
             height="100%" />
          <use
             xlink:href="#Z"
             y="-15.569"
             id="use1332"
             x="0"
             width="100%"
             height="100%" />
          <use
             xlink:href="#Z"
             y="-23.591999"
             id="use1334"
             x="0"
             width="100%"
             height="100%" />
          <use
             xlink:href="#Z"
             y="-31.34"
             id="use1336"
             x="0"
             width="100%"
             height="100%" />
        </g>
      </g>
    </g>
  </g>
  <style
     id="style833"><![CDATA[.B{fill:#fffbf2}.C{fill:#f6caa5}.D{fill:#272e48}.E{fill:#fc724d}.F{fill:#f2f2f2}.G{fill:#f2ae89}.H{fill:#0047bb}.I{fill:#374166}.J{fill:#417cdc}.K{fill:#c24e4e}.L{fill:#e4e6f0}.M{fill:#2e2e2e}.N{fill:#fdfdff}.O{fill:#e7dcd2}.P{fill:#ad8772}.Q{fill:#decdc1}.R{fill:#ff9d85}.S{fill:#d16969}.T{fill:#bfbfbf}]]></style>
</svg>
