<svg xmlns="http://www.w3.org/2000/svg" width="1156.697" height="1000" viewBox="0 0 306.043 264.583" fill="#ff5c30" xmlns:v="https://vecta.io/nano"><path d="M0 90.085h0c0-1.763 1.43-3.193 3.193-3.193h22.764c1.763 0 3.193 1.429 3.193 3.193s-1.429 3.193-3.193 3.193H3.193C1.43 93.278 0 91.849 0 90.085m54.423 73.531h0c-1.585-.773-2.244-2.684-1.471-4.269l9.972-20.464c.773-1.585 2.683-2.244 4.269-1.472s2.245 2.684 1.472 4.269l-9.972 20.464c-.773 1.585-2.684 2.245-4.269 1.471m-39.26-27.71h0a3.19 3.19 0 0 1 .758-4.45l18.572-13.165c1.438-1.019 3.431-.68 4.451.759s.68 3.432-.759 4.452l-18.571 13.164c-1.438 1.019-3.432.68-4.451-.759"/></svg>