<svg xmlns="http://www.w3.org/2000/svg" width="30" height="30" viewBox="0 0 23.494 23.495">
  <g id="Grupo_1" data-name="Grupo 1" transform="translate(-1307.988 -494.002)">
    <path id="Caminho_1" data-name="Caminho 1" d="M1331.455,502.839a15.454,15.454,0,0,0-.354-3.69,6.428,6.428,0,0,0-2.16-3.488,6.949,6.949,0,0,0-4.005-1.516c-1.655-.1-3.356-.147-5.2-.143s-3.548.042-5.2.143a6.949,6.949,0,0,0-4.005,1.516,6.429,6.429,0,0,0-2.16,3.488,15.456,15.456,0,0,0-.355,3.69c-.012.858-.024,1.874-.026,2.912s.015,2.05.026,2.908a15.454,15.454,0,0,0,.355,3.69,6.429,6.429,0,0,0,2.16,3.488,6.948,6.948,0,0,0,4.005,1.516c1.655.1,3.356.148,5.2.143h.234c1.756,0,3.384-.047,4.969-.143a6.949,6.949,0,0,0,4.005-1.516,6.428,6.428,0,0,0,2.16-3.488,15.455,15.455,0,0,0,.354-3.69c.012-.858.024-1.874.027-2.908v0C1331.479,504.713,1331.467,503.7,1331.455,502.839Zm-1.835,5.794a14.066,14.066,0,0,1-.3,3.262,4.634,4.634,0,0,1-1.542,2.519,5.057,5.057,0,0,1-2.957,1.107c-1.616.1-3.28.144-5.091.14s-3.471-.041-5.087-.14a5.057,5.057,0,0,1-2.957-1.106,4.633,4.633,0,0,1-1.542-2.519,14.053,14.053,0,0,1-.3-3.262c-.011-.853-.024-1.863-.026-2.883s.015-2.034.026-2.887a14.055,14.055,0,0,1,.3-3.262,4.633,4.633,0,0,1,1.542-2.519,5.057,5.057,0,0,1,2.957-1.106c1.616-.1,3.28-.144,5.091-.14s3.471.041,5.087.14a5.057,5.057,0,0,1,2.957,1.106,4.634,4.634,0,0,1,1.542,2.519,14.069,14.069,0,0,1,.3,3.262c.012.852.024,1.861.027,2.885S1329.632,507.782,1329.62,508.634Z" fill="#fff"/>
    <path id="Caminho_2" data-name="Caminho 2" d="M1443.712,625a5.736,5.736,0,1,0,5.736,5.736A5.743,5.743,0,0,0,1443.712,625Zm0,9.636a3.9,3.9,0,1,1,3.9-3.9A3.905,3.905,0,0,1,1443.712,634.636Z" transform="translate(-124.023 -124.987)" fill="#fff"/>
    <path id="Caminho_3" data-name="Caminho 3" d="M1673.353,585a1.377,1.377,0,1,0,1.377,1.377,1.377,1.377,0,0,0-1.377-1.377Z" transform="translate(-347.285 -86.823)" fill="#fff"/>
    <path id="Caminho_4" data-name="Caminho 4" d="M1701.976,585" transform="translate(-375.909 -86.823)" fill="#fff"/>
  </g>
</svg>
