<svg id="Layer_2" data-name="Layer 2" xmlns="http://www.w3.org/2000/svg" width="78.75" height="78.75" viewBox="0 0 78.75 78.75">
  <g id="invisible_box" data-name="invisible box">
    <rect id="Retângulo_47" data-name="Retângulo 47" width="78.75" height="78.75" fill="none"/>
  </g>
  <g id="icons_Q2" data-name="icons Q2" transform="translate(3 4)">
    <path id="Caminho_28" data-name="Caminho 28" d="M63.621,26.994H51.5l.693-5.837C53.229,12.49,51.5,5.592,45.954,4h-.52a3.479,3.479,0,0,0-2.6,2.123S30.712,32.3,25.516,32.3H6.464A3.5,3.5,0,0,0,3,35.837v28.3a3.5,3.5,0,0,0,3.464,3.538H29.5a2.735,2.735,0,0,1,2.078.707C34,70.151,42.144,74.75,46.3,74.75h8.66c10.219,0,19.052-7.075,19.918-21.048h0l.866-14.327a11.989,11.989,0,0,0-3.387-8.923,11.474,11.474,0,0,0-8.737-3.459ZM9.928,39.375H20.32V60.6H9.928Zm58.023,13.8h0c-.693,9.2-5.542,14.5-12.99,14.5H46.3c-2.078-.177-8.314-3.361-10.565-4.953A9.91,9.91,0,0,0,29.5,60.6H27.248V39.375c3.291-.708,8.66-3.891,18.186-22.64a29.255,29.255,0,0,1-.173,3.714l-.693,5.837L43.7,34.069H63.621a4.617,4.617,0,0,1,3.785,1.311A4.832,4.832,0,0,1,68.817,39.2Z" transform="translate(-3 -4)" fill="#505050"/>
  </g>
</svg>
