<svg xmlns="http://www.w3.org/2000/svg" xmlns:xlink="http://www.w3.org/1999/xlink" width="33" height="34" viewBox="0 0 33 34">
  <defs>
    <clipPath id="clip-path">
      <rect id="Retângulo_6" data-name="Retângulo 6" width="33" height="34" transform="translate(0.476 0.23)" fill="#fff"/>
    </clipPath>
  </defs>
  <g id="Grupo_12" data-name="Grupo 12" transform="translate(-0.476 -0.23)">
    <g id="Grupo_9" data-name="Grupo 9" transform="translate(0 0)">
      <g id="Grupo_8" data-name="Grupo 8" transform="translate(0 0)" clip-path="url(#clip-path)">
        <path id="Caminho_14" data-name="Caminho 14" d="M1034.183,655.9a2.08,2.08,0,0,0-3.5,1l-2.481,9.646-5.826,5.766a1.018,1.018,0,0,0-.008,1.439l.538.543-2.175,2.153a1.017,1.017,0,0,0-.007,1.438l4.963,5.014a1.017,1.017,0,0,0,1.438.007l2.175-2.152.538.543a1.017,1.017,0,0,0,1.438.007l.8-.791,4.864,4.914a1.017,1.017,0,0,0,1.438.007l2.98-2.95a1.017,1.017,0,0,0,.007-1.438l-4.864-4.914.6-.594,9.671-2.381a2.08,2.08,0,0,0,1.032-3.493Zm-7.769,24.841-3.531-3.569,1.452-1.437,3.532,3.568Zm-1.887-7.7,4.58-4.533,6.037,6.1-4.579,4.533Zm14.674,8.711-1.535,1.519-4.148-4.191,1.535-1.519Zm7.133-10.584-9.434,2.322-6.657-6.726c.007-.026,2.411-9.384,2.419-9.41a.044.044,0,0,1,.075-.022l13.619,13.76a.044.044,0,0,1-.022.075Zm0,0" transform="translate(-1019.518 -651.326)" fill="#fff"/>
        <path id="Caminho_15" data-name="Caminho 15" d="M1252.617,611.359a11.121,11.121,0,0,0-7.879-3.361,1.017,1.017,0,0,0-.021,2.034,9.158,9.158,0,0,1,9.061,9.253,1.017,1.017,0,0,0,1.007,1.027h.01a1.017,1.017,0,0,0,1.017-1.007,11.121,11.121,0,0,0-3.195-7.947Zm0,0" transform="translate(-1222.616 -608.319)" fill="#fff"/>
      </g>
    </g>
    <path id="Caminho_16" data-name="Caminho 16" d="M1244.265,653.1h-.011a1.017,1.017,0,0,0-.01,2.034,5.08,5.08,0,0,1,5.026,5.132,1.016,1.016,0,0,0,1.006,1.028h.011a1.017,1.017,0,0,0,1.017-1.006,7.114,7.114,0,0,0-7.039-7.188Zm0,0" transform="translate(-1222.186 -649.345)" fill="#fff"/>
  </g>
</svg>
