<svg xmlns="http://www.w3.org/2000/svg" width="78.75" height="78.75" viewBox="0 0 78.75 78.75">
  <path id="Icon_awesome-bullhorn" data-name="Icon awesome-bullhorn" d="M78.75,36.914a10.068,10.068,0,0,0-4.375-8.478V4.923C74.375,3.578,73.421,0,70,0a4.072,4.072,0,0,0-2.732,1.08L55.643,11.543A30.955,30.955,0,0,1,35,19.688H8.75C3.917,19.688,0,24.094,0,29.531V44.3c0,5.437,3.917,9.844,8.75,9.844h4.607a41.978,41.978,0,0,0-.3,4.922,43.026,43.026,0,0,0,3.495,17.064,4.255,4.255,0,0,0,3.883,2.624H30.592c3.562,0,5.7-4.59,3.541-7.777a21.221,21.221,0,0,1-3.575-11.911,20.8,20.8,0,0,1,.6-4.922H35a30.949,30.949,0,0,1,20.642,8.144L67.267,72.748A4.085,4.085,0,0,0,70,73.828c3.407,0,4.375-3.5,4.375-4.922V45.394A10.07,10.07,0,0,0,78.75,36.914ZM65.625,58.666,61.106,54.6A39.13,39.13,0,0,0,35,44.3V29.531a39.13,39.13,0,0,0,26.106-10.3l4.519-4.067Z" fill="#505050"/>
</svg>
