<svg xmlns="http://www.w3.org/2000/svg" width="24.246" height="24.247" viewBox="0 0 24.246 24.247">
  <g id="Grupo_6" data-name="Grupo 6" transform="translate(-1968.51 -454)">
    <path id="Caminho_12" data-name="Caminho 12" d="M1992.729,463.121a15.949,15.949,0,0,0-.366-3.809,6.634,6.634,0,0,0-2.229-3.6,7.172,7.172,0,0,0-4.134-1.565c-1.708-.1-3.463-.152-5.365-.148s-3.661.044-5.369.148a7.171,7.171,0,0,0-4.134,1.565,6.635,6.635,0,0,0-2.23,3.6,15.957,15.957,0,0,0-.366,3.809c-.012.885-.025,1.934-.027,3.005s.015,2.116.027,3a15.955,15.955,0,0,0,.366,3.809,6.635,6.635,0,0,0,2.23,3.6,7.171,7.171,0,0,0,4.133,1.565c1.708.1,3.464.152,5.365.148h.241c1.812,0,3.492-.048,5.128-.148a7.171,7.171,0,0,0,4.134-1.565,6.634,6.634,0,0,0,2.229-3.6,15.944,15.944,0,0,0,.366-3.809c.012-.885.025-1.934.027-3v0C1992.754,465.055,1992.741,464.006,1992.729,463.121Zm-1.894,5.98a14.5,14.5,0,0,1-.307,3.366,4.782,4.782,0,0,1-1.591,2.6,5.219,5.219,0,0,1-3.052,1.142c-1.668.1-3.384.149-5.254.144s-3.582-.043-5.25-.144a5.219,5.219,0,0,1-3.052-1.142,4.782,4.782,0,0,1-1.591-2.6,14.513,14.513,0,0,1-.307-3.366c-.012-.88-.025-1.922-.027-2.975s.015-2.1.027-2.979a14.514,14.514,0,0,1,.307-3.366,4.782,4.782,0,0,1,1.591-2.6,5.22,5.22,0,0,1,3.052-1.142c1.668-.1,3.385-.149,5.254-.144s3.582.043,5.25.144a5.22,5.22,0,0,1,3.052,1.142,4.782,4.782,0,0,1,1.591,2.6,14.5,14.5,0,0,1,.307,3.366c.012.879.025,1.921.027,2.977S1990.847,468.222,1990.835,469.1Z" fill="#1473e6"/>
    <path id="Caminho_13" data-name="Caminho 13" d="M2126.731,623.235a4.372,4.372,0,0,1-1.208.331,2.086,2.086,0,0,0,.922-1.159,4.189,4.189,0,0,1-1.33.508,2.1,2.1,0,0,0-3.627,1.434,2.165,2.165,0,0,0,.049.478,5.936,5.936,0,0,1-4.323-2.194,2.1,2.1,0,0,0,.645,2.8,2.072,2.072,0,0,1-.948-.258v.023a2.107,2.107,0,0,0,1.68,2.061,2.092,2.092,0,0,1-.55.069,1.856,1.856,0,0,1-.4-.036,2.117,2.117,0,0,0,1.959,1.461,4.213,4.213,0,0,1-2.6.894,3.927,3.927,0,0,1-.5-.029,5.969,5.969,0,0,0,9.186-5.026c0-.093,0-.182-.008-.271A4.182,4.182,0,0,0,2126.731,623.235Z" transform="translate(-140.983 -160.282)" fill="#1473e6"/>
  </g>
</svg>
