<svg id="Layer_2" data-name="Layer 2" xmlns="http://www.w3.org/2000/svg" width="40" height="40" viewBox="0 0 40 40">
  <g id="invisible_box" data-name="invisible box">
    <rect id="Retângulo_41" data-name="Retângulo 41" width="40" height="40" fill="none"/>
    <rect id="Retângulo_42" data-name="Retângulo 42" width="40" height="40" fill="none"/>
    <rect id="Retângulo_43" data-name="Retângulo 43" width="40" height="40" fill="none"/>
  </g>
  <g id="Q3_icons" data-name="Q3 icons" transform="translate(6.001 4.988)">
    <path id="Caminho_24" data-name="Caminho 24" d="M37.4,21.5,25.4,9.6a1.9,1.9,0,0,0-2.8,0l-12,11.9a2.1,2.1,0,0,0-.2,2.7,1.9,1.9,0,0,0,3,.2L22,15.8V37a2,2,0,0,0,4,0V15.8l8.6,8.6a1.9,1.9,0,0,0,3-.2,2.1,2.1,0,0,0-.2-2.7Z" transform="translate(-10.001 -8.985)" fill="#929292"/>
  </g>
</svg>
